<?xml version="1.0" encoding="UTF-8"?>
<svg id="Layer_2" data-name="Layer 2" xmlns="http://www.w3.org/2000/svg" viewBox="0 0 215.14 241.2">
  <defs>
    <style>
      .cls-1 {
        stroke-width: 0px;
      }
    </style>
  </defs>
  <g id="Layer_1-2" data-name="Layer 1">
    <path id="BZx58r" class="cls-1" d="m72.95,175.89c-.57,1.2-.5,2.42-.66,3.58-.41,2.92-.79,5.85-1.09,8.78-.27,2.61-.19,5.24-.03,7.86.46,7.43,3.46,14.12,6.03,20.94,1.18,3.13,2.55,6.2,3.34,9.47.84,3.46.05,6.61-2.06,9.4-2.02,2.66-4.8,3.22-7.94,2.48-1.99-.47-2.61-.87-3.77-2.54-.43.15-.48.59-.65.91-.6,1.16-1.27,2.25-2.36,3.03-1.91,1.37-4,1.14-5.63-.59-1.95-2.06-2.26-4.57-2.06-7.23.32-4.07.73-8.13,1.33-12.16.25-1.67.53-3.36.53-5.04-.02-6.34-1.1-12.41-4.8-17.78-2.15-3.12-4.8-5.85-7.09-8.86-3.02-4-6.08-7.98-8.7-12.26-2.32-3.78-3.06-7.96-2.82-12.32.22-3.92.83-7.77,1.98-11.54,2.33-7.66,6.75-13.69,13.78-17.69,1.51-.86,3.12-1.39,4.83-1.76-.95-.38-1.92-.7-2.87-.12-2.09,1.28-4.32,1.95-6.78,2.02-5.22.15-9.93-1.15-13.83-4.77-2.2-2.04-3.77-4.54-5.05-7.23-2.4-5.05-4.26-10.3-5.31-15.8-.51-2.66-.26-5.35.17-8.02.05-.29.18-.57.04-.87-.36-.13-.56.15-.8.29-2.78,1.67-5.72,3.04-8.94,3.49-3.21.45-6.36.15-9.18-1.73-.65-.43-1.16-.99-1.58-1.63-.8-1.21-.56-2.57.63-3.41.59-.42,1.22-.82,1.87-1.12,4.5-2.09,7.73-5.45,10.26-9.68,3.35-5.6,5.65-11.63,7.77-17.75.92-2.66,2.15-5.13,3.96-7.31,1.51-1.82,3.33-3.22,5.66-3.65,2.37-.44,4.79-.26,7.04.7,2.75,1.18,3.86,3.5,3.99,6.37.07,1.56.06,3.13-.23,4.66-.16.82.2.76.73.55,2.14-.83,4.24-1.73,6.42-2.45,1.34-.45,1.97-1.21,2.16-2.6.26-1.91.9-3.74,1.46-5.57.28-.92.81-1.69,1.54-2.28,1.34-1.08,2.68-2.19,4.23-2.97.44-.22.63-.47.68-1.04.26-3.34.63-6.67.93-10,.21-2.34.38-4.69.53-7.04.45-6.9.11-13.81.2-20.72.02-1.19,0-2.38.18-3.58.19-1.27.51-1.65,1.75-1.91.37-.08.79-.02,1.19-.33-.65-.7-1.41-.82-2.25-.55-2.66.87-4,2.92-4.53,5.48-.61,2.95-.26,5.95-.11,8.93.17,3.31.45,6.62.65,9.93.06.96-.36,1.23-1.44,1.03-.91-.17-1.8-.42-2.74-.19-.52.12-1,.32-1.48.56-.24.12-.54.33-.83.05-.29-.28-.09-.55.03-.82.81-1.82,1.46-3.7,1.89-5.65.67-3.01.6-6.05.37-9.1-.15-2.05-.51-4.08-.53-6.15-.05-3.77,1.63-6.37,5.14-7.7,3.51-1.33,6.95-1.15,10.21.85.63.39,1.21.89,1.46,1.59.29.8.84.83,1.51.72,2.78-.46,5.56-.89,8.34-1.37,4.51-.78,9.01-1.54,13.51-2.39,2.77-.52,5.49-1.23,8.28-1.67,2.49-.4,3.5-.01,4.87,2.08,1.11,1.68,1.84,3.54,2.47,5.42,1.54,4.67,3.41,9.21,5.24,13.77,1.14,2.84,2.05,5.75,3.1,8.62,1.14,3.11,2.41,6.18,3.59,9.28.41,1.08.74,2.2,1.13,3.29.15.42.38.77.95.66,3.13-.57,6.19-.18,9.25.62,3.05.79,6.21,1.02,9.34,1.42,3.1.4,6.2.81,9.07,2.09,4.27,1.91,7.19,5.13,8.82,9.52.58,1.56,1.22,3.09,1.8,4.64.2.55.49.84,1.1.97,2.53.54,5.09.91,7.57,1.67.52.16.68-.06.78-.56.95-4.43,5.89-8.7,10.36-8.93,1.24-.06,2.44.18,3.58.69,4.29,1.91,6.74,5.46,8.48,9.6,1.26,3,2.11,6.15,3.41,9.13,2.19,5.01,5.19,9.51,8.9,13.49,1.98,2.12,4.28,3.97,7.03,5.13,1.4.59,2.38,1.56,2.39,3.22,0,.49-.15.9-.47,1.26-2.71,3.03-6.08,4.65-10.14,4.78-1.36.04-2.72.15-4.08-.09-2.2-.39-3.92-1.73-5.71-2.93-.6-.4-1.17-.84-1.9-1.37.1,1.25.47,2.27.62,3.33.45,3.2.04,6.29-.88,9.33-1.98,6.54-4.87,12.63-9.23,17.95-1.11,1.36-2.33,2.65-3.73,3.72-4.1,3.15-8.56,2.94-13.13,1.28-1.4-.51-2.67-1.34-3.95-2.11-.95-.57-1.97-.41-2.83.52.68.37,1.45.1,2.13.35,3.27,1.17,6.39,2.6,9,4.96,2.76,2.5,4.5,5.65,5.8,9.05,2.18,5.68,3.2,11.62,3.59,17.67.27,4.17-.99,8.06-2.52,11.88-1.09,2.72-2.51,5.28-4.17,7.69-3.54,5.14-6.98,10.35-9.75,15.97-2.61,5.29-4.27,10.85-5.04,16.68-.52,3.91-.29,7.79.43,11.67.47,2.51.65,5.07.54,7.63-.1,2.21-1.33,3.72-3.48,4.3-1.21.33-2.44.54-3.72.37-1.58-.21-2.83-.88-3.68-2.24-.19-.31-.37-.74-.76-.17-1.42,2.09-5.36,2.44-7.79.84-2-1.32-2.92-3.27-3.39-5.52-.66-3.11.13-5.98,1.38-8.79,2.23-5.04,3.45-10.37,4.43-15.77.69-3.82,1.32-7.65,1.69-11.51.36-3.73.86-7.46.49-11.22-.19-1.93-.69-3.79-1.86-5.4-.59-.81-.69-.79-1.21.06-2.29,3.71-5.05,7.04-8.73,9.42-3.52,2.28-7.36,3.93-11.45,4.97-3.1.79-6.21,1.39-9.42,1.42-3.58.03-7.16.21-10.74.13-3.44-.08-6.87-.29-10.21-1.39-5.34-1.77-9.36-5.16-12.55-9.66-1.81-2.56-3.21-5.34-4.47-8.21-.2-.45-.28-.95-.76-1.43Zm95.34-80.57c-.09.01-.18.02-.27.04-.08.14-.18.27-.23.42-.73,2.09-1.87,3.96-3.02,5.82-2.88,4.67-7.06,7.64-12.26,9.3-4.87,1.55-9.8,1.54-14.75.6-3.89-.74-7.74-1.66-11.24-3.59-6.5-3.59-11.05-9.02-14.43-15.53-1.64-3.16-3.08-6.4-3.57-9.98-.18-1.32-.53-2.6-1.11-3.81-.65-1.35-1.7-1.55-2.9-.61-.29.23-.5.53-.68.85-.53.93-.84,1.95-1.04,2.99-.46,2.34-.63,4.74-1.47,7-2.02,5.47-4.88,10.43-8.83,14.77-3.05,3.34-6.54,6.04-10.62,7.92-6.16,2.84-12.64,3.26-19.18,1.88-7.06-1.49-13-4.92-17.17-11-.14-.21-.24-.57-.54-.52-.34.06-.34.45-.41.72-.51,1.86-1,3.73-1.11,5.65-.17,2.91-.37,5.84.56,8.69.55,1.68,1.45,3.2,2.3,4.74,1.75,3.19,3.91,6.08,6.17,8.91.57.71,1.1,1.04,1.94,1.09,1.69.1,3.23.66,4.68,1.53,2.8,1.68,4.7,4.09,5.79,7.12,2.04,5.63,3.31,11.47,4.57,17.3,1.42,6.62,2.92,13.21,5.64,19.45,2.26,5.19,5.02,10.03,9.51,13.69,3.69,3.01,7.89,4.71,12.62,5.11,3.64.31,7.3.23,10.95.2,3.52-.03,7.02-.21,10.48-.98,8.06-1.8,14.93-5.51,19.73-12.44,3.52-5.08,5.89-10.76,8.33-16.39,2.28-5.25,2.61-10.87,2.79-16.48.16-4.77,1.29-9.24,3.56-13.43.79-1.46,1.82-2.67,3.25-3.55,1.08-.66,2.15-1.33,3.28-1.88.75-.36,1.3-.79,1.47-1.69.18-.95.69-1.79,1.17-2.63,1.31-2.31,2.61-4.63,3.97-6.91,3.59-6.06,4.7-12.55,3.42-19.45-.31-1.67-.89-3.3-1.35-4.95ZM57.52,232.76c0,.56-.02,1.13,0,1.69.06,1.9.91,3.46,2.23,4.75,1.12,1.1,1.83,1.07,3.02.05.61-.52,1.08-1.17,1.5-1.85.57-.94.97-1.96,1.29-3.01.19-.62.44-1.14,1.18-1.14.78,0,.94.61,1.12,1.19.09.28.17.57.27.85.5,1.34,1.42,2.18,2.85,2.51,2.75.64,4.69-.02,6.32-2.36,2.12-3.05,2.72-6.35,1.52-9.92-1.62-4.85-3.47-9.61-5.37-14.36-2.24-5.6-3.62-11.36-3.87-17.39-.14-3.4.23-6.76.74-10.11.51-3.37.59-6.81,1.65-10.09.14-.43.02-.84-.13-1.26-.45-1.32-.9-2.64-1.28-3.98-1.52-5.36-2.37-10.88-3.79-16.27-.96-3.65-1.71-7.37-2.99-10.93-1.01-2.81-2.52-5.26-5.01-7.02-.64-.45-1.31-.7-2.12-.71-2.87-.03-5.27,1.2-7.53,2.79-5.21,3.65-8.68,8.61-10.75,14.58-1.35,3.88-2.05,7.89-2.37,11.97-.37,4.75.34,9.3,2.98,13.36,3.69,5.68,7.7,11.14,12.12,16.29,2.32,2.71,4.49,5.52,5.85,8.85,2.68,6.57,2.84,13.34,1.69,20.25-.62,3.73-.98,7.49-1.12,11.27Zm6.24-181.43c1.94.04,4.01-.35,6.09-.54,4.99-.46,9.97-1.11,14.98-1.41,4.32-.26,8.59-.81,12.87-1.42,4.96-.71,9.92-1.49,14.87-2.26,2.1-.32,4.21-.63,6.29-1.05,1.61-.32,1.61-.42,1.02-2-1.15-3.12-2.31-6.23-3.43-9.35-1.71-4.75-3.24-9.56-5.2-14.23-1.37-3.28-2.62-6.61-3.77-9.97-.8-2.32-1.59-4.66-3.07-6.67-.67-.92-1.41-1.33-2.62-1.1-5.38,1.02-10.74,2.15-16.14,3.09-7.26,1.27-14.55,2.37-21.82,3.62-.75.13-1.12.46-1.23,1.19-.16,1.16-.21,2.31-.21,3.48.01,4.95.03,9.9.03,14.85,0,4.46-.37,8.89-.76,13.33-.26,2.88-.58,5.75-.86,8.62-.16,1.62.02,1.8,1.61,1.82.4,0,.8,0,1.36,0Zm82.16,138.26c-.17,4.86-.74,9.46-1.45,14.05-1.15,7.45-2.5,14.85-5.61,21.81-.97,2.17-1.58,4.42-1.19,6.86.31,1.94.85,3.78,2.27,5.2,1.08,1.09,2.34,1.93,3.98,1.58,1.94-.4,2.88-1.69,3.02-4.01.03-.54.06-1.01.75-1.06.68-.04.83.43.94.94.21.95.52,1.85.99,2.7,1.02,1.85,2.51,2.43,4.82,1.91,2.01-.45,3.17-1.73,3.27-3.71.11-2.29-.01-4.58-.33-6.85-.31-2.23-.82-4.44-.87-6.71-.12-5.47.84-10.77,2.53-15.95,1.84-5.63,4.72-10.75,7.83-15.75,2.14-3.44,4.68-6.63,6.64-10.17,3.26-5.87,5.45-11.99,4.56-18.91-.68-5.29-1.64-10.48-3.59-15.46-2.37-6.04-6.41-10.4-12.6-12.63-3.14-1.13-5.08-.68-6.92,2.18-1.45,2.25-2.4,4.74-3.13,7.3-1.04,3.68-.96,7.49-1.2,11.26-.26,3.99-.88,7.9-2.33,11.66-1.59,4.09-3.6,7.99-5.56,11.91-.34.69-.3,1.11.27,1.62,1.14,1.03,1.82,2.35,2.24,3.82.62,2.16.88,4.35.65,6.39Zm56.69-87.6c3.73.04,7.06-1.21,9.76-4.08,1.18-1.26,1.27-1.77.25-3.15-.39-.52-.9-.88-1.5-1.12-2.58-1.04-4.69-2.79-6.63-4.68-3.21-3.12-5.74-6.78-7.89-10.7-1.95-3.57-3.29-7.39-4.58-11.23-1.08-3.2-2.73-6.07-5.18-8.39-1.62-1.54-3.46-2.88-5.87-2.78-2.01.09-3.66,1.06-5.13,2.39-1.88,1.7-3.41,3.63-3.99,6.17-.13.59-.11,1.06.57,1.39,3.12,1.51,4.5,4.01,4.35,7.48-.08,1.87-.52,3.4-2.09,4.58-1.77,1.33-3.19,2.89-3.65,5.24-.6,3.09-.88,6.25-1.98,9.23-.1.27,0,.52.07.78.44,1.63.85,3.27,1.32,4.9,1.73,5.94,1.45,11.78-.79,17.55-1.28,3.3-3.28,6.22-4.98,9.29-.83,1.51-1.73,2.99-2.3,4.63-.23.67-.13,1.2.48,1.54,1.66.91,3.22,2,5.04,2.6,3.61,1.18,7.02.94,10.03-1.57,1.3-1.08,2.49-2.3,3.57-3.61,3.15-3.83,5.5-8.12,7.34-12.71,1.67-4.18,3.13-8.39,2.79-13-.18-2.53-.83-4.89-2.06-7.1-.82-1.47-2.08-2.58-3.19-3.81-.21-.23-.63-.49-.35-.82.28-.33.74-.22,1.1-.02.17.1.31.25.44.4.45.48.92.96,1.35,1.47,2.53,2.97,5.28,5.7,8.66,7.73,1.51.91,3.07,1.57,5.03,1.43ZM66.61,63.21c6.47.15,10.85-.02,15.18.9,5.08,1.09,10.06,2.41,14.59,5.07,1.23.72,2.53,1.35,3.92,1.69,3.65.89,7.24.49,10.77-.64,3.55-1.13,6.82-2.96,10.31-4.24,3.21-1.18,6.33-2.61,9.65-3.44,3.8-.95,7.68-1.46,11.63-1.26,3.18.16,6.37-.06,9.56.21,2.22.19,4.42.45,6.6.84.66.12.86-.03.57-.71-.79-1.9-1.44-3.86-2.33-5.71-1.98-4.12-5.14-6.93-9.57-8.27-2.36-.71-4.79-1.04-7.22-1.38-3.38-.47-6.81-.67-10.1-1.62-2.5-.73-4.97-.69-7.47-.09-1.61.39-3.22.82-4.85,1.08-5.96.94-11.93,1.75-17.88,2.73-6.65,1.1-13.37,1.5-20.08,2.09-3.04.27-6.07.62-9.1.91-2.97.28-5.94.97-8.91.62-1.92-.23-3.24.54-4.58,1.6-.47.37-.95.72-1.42,1.09-.63.5-1.21,1.07-1.53,1.81-.97,2.23-1.7,4.53-2.2,6.91-.18.84.03,1.01.88.89,5.2-.73,10.41-1.23,13.57-1.08Zm-44.22,40.73c-.07.61.08,1.71.31,2.78,1.29,6.03,3.27,11.82,6.17,17.28,1.05,1.97,2.35,3.78,3.98,5.33,2.88,2.73,6.33,4.18,10.26,4.56,2.61.25,5.1-.15,7.4-1.46,1.24-.7,1.31-.91.37-2.01-2.24-2.64-4.07-5.56-5.94-8.47-2.94-4.58-3.42-9.51-2.74-14.72.29-2.18.96-4.27,1.52-6.38.15-.55.1-1.02-.15-1.53-2.17-4.46-3.7-9.09-3.73-14.11-.01-1.74-.51-3.32-1.66-4.68-.81-.97-1.44-2.07-1.91-3.25-.74-1.88-.61-3.7.52-5.41.63-.96,1.51-1.67,2.43-2.33.36-.26.7-.5.85-.94.7-2.07,1.41-4.13,1.01-6.4-.46-2.62-1.54-4.86-4.13-5.78-3.79-1.34-6.31-1.19-9.56,2.19-2.5,2.59-3.83,5.85-4.96,9.21-2.08,6.18-4.55,12.18-8.1,17.69-2.11,3.28-4.71,5.98-8.22,7.77-1,.51-1.99,1.07-2.94,1.68-1.46.93-1.62,1.94-.59,3.34.75,1.02,1.74,1.74,2.93,2.14,2.45.83,4.91,1.07,7.42.22,1.35-.46,2.69-.95,3.99-1.53,1.98-.88,3.81-2.05,5.48-3.42,1.12-.92,2.06-2.06,3.08-3.11.38-.39.79-.72,1.34-.82.3-.06.64-.09.82.2.2.32-.07.56-.28.77-.73.72-1.42,1.51-2.24,2.12-1.11.82-1.73,1.89-2.06,3.18-.46,1.78-.55,3.6-.65,5.91Zm46.44-40.14c-1.53,0-3.06,0-4.58,0-3.13,0-6.22.53-9.32.89-1.78.2-3.57.39-5.27,1.01-1.93.71-3.82,1.55-5.76,2.23-2.28.8-4.08,2.2-5.56,4.05-1.21,1.5-1.42,3.17-.74,4.96.56,1.48,1.46,2.76,2.41,4,.76.99,1.13,2.11,1.16,3.33.09,4.06,1.05,7.91,2.34,11.76,1.92,5.76,5.81,9.83,10.62,13.16,3.15,2.18,6.74,3.23,10.54,3.61,3.04.3,6.05.74,9.12.16,5.35-1,10.3-2.82,14.4-6.54,3.71-3.37,7.03-7.03,9.18-11.65,1.75-3.75,3.34-7.52,3.77-11.69.16-1.54.5-3.09,1.32-4.46.99-1.66,2.63-1.75,4.29-1.73,1.39.02,1.85,1.1,2.3,2.16.71,1.67.8,3.49,1.26,5.21,1.46,5.46,4.08,10.36,7.49,14.84,2.9,3.8,6.38,6.95,10.78,8.95,2.85,1.3,5.86,2.14,8.93,2.76,4.3.87,8.6,1.13,12.92-.03,5.43-1.47,9.74-4.44,12.83-9.14,2.18-3.31,3.6-6.94,4.76-10.7.78-2.55.99-5.22,1.58-7.8.43-1.87,1.11-3.53,2.76-4.68.62-.43,1.14-1.02,1.7-1.53.81-.74,1.2-1.65,1.18-2.75,0-.43-.06-.87.02-1.29.5-2.82-1.77-5.98-4.62-7.05-2.73-1.02-5.56-1.53-8.39-2.12-3.64-.76-7.27-1.52-11.01-1.73-3.52-.2-7.04-.07-10.56-.16-2.24-.05-4.44.29-6.62.71-4.47.87-8.58,2.77-12.81,4.35-3.3,1.23-6.39,2.97-9.77,3.99-3.66,1.1-7.39,1.26-11.14.7-2.23-.33-4.18-1.49-6.13-2.56-5.4-2.96-11.29-4.21-17.31-4.99-2.68-.35-5.38-.14-8.07-.24Zm-12.83-48.19c0-.53-.03-1.07,0-1.59.19-2.63.84-5.07,3.09-6.74,1.39-1.03,3-1.74,4.64-.93,1.32.65,2.52.62,3.82.3.52-.13,1.31.06,1.47-.58.16-.64-.44-1.13-.85-1.61-.11-.12-.25-.21-.38-.32-1.29-1.13-2.88-1.43-4.51-1.64-4.7-.61-8.74,2.37-9.47,7.02-.32,2.07.29,4.09.43,6.14.17,2.52.45,5.02.15,7.55-.31,2.55-.9,5.03-1.88,7.4-.27.65-.21.97.57.78.96-.23,1.91-.2,2.86.03.59.14.88-.05.85-.69-.05-.96-.03-1.93-.11-2.89-.32-4.07-.58-8.15-.69-12.23Zm87.93,96.2s0,.03,0,.04h2.32s0-.03,0-.04h-2.32ZM61.21,241.2c-1.23,0-2.43-.55-3.45-1.63-2.28-2.41-2.37-5.33-2.19-7.61.37-4.69.79-8.57,1.34-12.2l.06-.43c.23-1.49.46-3.04.46-4.53-.03-7.31-1.52-12.87-4.71-17.5-1.23-1.78-2.65-3.46-4.02-5.09-1.02-1.21-2.08-2.46-3.05-3.75l-.56-.74c-2.8-3.7-5.69-7.52-8.17-11.55-2.21-3.61-3.16-7.74-2.89-12.61.23-4.13.9-8.05,2-11.66,2.35-7.7,6.79-13.59,13.2-17.5-1.19.36-2.43.56-3.74.6-5.81.16-10.45-1.43-14.19-4.91-2.01-1.87-3.65-4.21-5.16-7.38-2.6-5.48-4.35-10.69-5.35-15.92-.55-2.9-.23-5.77.16-8.19,0-.03.01-.06.02-.09,0,0-.02.01-.02.02-3.37,2.02-6.26,3.15-9.12,3.56-3.78.54-6.9-.06-9.53-1.81-.66-.44-1.23-1.02-1.72-1.77-.96-1.46-.65-3.1.76-4.1.51-.36,1.2-.82,1.95-1.17,4.07-1.89,7.36-4.99,10.04-9.48,3.38-5.65,5.71-11.82,7.72-17.66,1.03-2.99,2.36-5.43,4.05-7.46,1.8-2.16,3.75-3.41,5.96-3.82,2.57-.48,5.1-.22,7.33.74,2.7,1.16,4.14,3.45,4.29,6.8.06,1.42.08,3.1-.23,4.78,0,0,0,0,0,.01.02,0,.04-.02.06-.02.63-.25,1.26-.5,1.89-.75,1.48-.59,3.01-1.2,4.55-1.71,1.16-.38,1.65-.98,1.82-2.19.23-1.65.73-3.25,1.21-4.8l.27-.86c.31-1.01.88-1.86,1.71-2.52l.19-.16c1.28-1.03,2.6-2.1,4.13-2.87.29-.15.37-.24.41-.64.16-2,.35-4,.55-6,.13-1.33.26-2.67.38-4,.18-2.04.35-4.27.53-7.03.29-4.43.25-8.95.21-13.32-.02-2.42-.04-4.92-.01-7.38v-.52c.02-1.02.03-2.07.18-3.12.23-1.51.71-2.03,2.15-2.32.02,0,.03,0,.05,0-.26-.04-.54,0-.85.09-2.26.74-3.63,2.41-4.19,5.1-.49,2.38-.34,4.87-.19,7.28.03.51.06,1.01.09,1.52.09,1.85.23,3.69.35,5.54.1,1.46.21,2.93.29,4.39.04.61-.1,1.04-.42,1.32-.46.4-1.14.32-1.62.23l-.35-.07c-.75-.15-1.46-.3-2.18-.13-.42.1-.84.26-1.38.52-.32.17-.89.46-1.4-.04-.51-.49-.24-1.05-.12-1.29l.05-.09c.84-1.88,1.44-3.7,1.86-5.56.68-3.05.58-6.11.36-8.96-.06-.77-.14-1.54-.23-2.32-.14-1.26-.29-2.55-.3-3.86-.05-4.03,1.79-6.78,5.46-8.17,3.77-1.43,7.35-1.13,10.65.89.87.53,1.41,1.14,1.67,1.85.14.4.29.5.95.39l2.34-.38c2-.32,4-.65,6-.99l1.91-.33c3.8-.65,7.74-1.33,11.59-2.06,1.13-.21,2.26-.46,3.39-.7,1.6-.35,3.25-.71,4.91-.97,2.71-.43,3.91.08,5.37,2.3,1.24,1.88,2,3.95,2.52,5.54,1.36,4.13,3.01,8.24,4.61,12.21l.62,1.53c.71,1.78,1.35,3.62,1.96,5.39.37,1.08.75,2.17,1.14,3.24.69,1.9,1.45,3.81,2.18,5.66.47,1.2.95,2.4,1.41,3.61.24.63.45,1.27.66,1.91.15.46.31.93.47,1.39.14.39.23.37.39.34,2.84-.51,5.84-.32,9.46.62,2.29.59,4.69.87,7.02,1.14.75.09,1.51.17,2.26.27,3.07.39,6.24.8,9.21,2.13,4.33,1.94,7.39,5.24,9.08,9.81.29.79.61,1.58.92,2.36.3.76.6,1.52.89,2.28.16.42.33.57.74.66.74.16,1.47.3,2.21.44,1.78.34,3.62.7,5.4,1.25.04.01.08.02.1.03,0-.03.02-.1.05-.21.99-4.64,6.15-9.08,10.82-9.33,1.29-.07,2.57.18,3.81.73,3.86,1.72,6.64,4.86,8.74,9.87.6,1.43,1.11,2.91,1.61,4.35.55,1.58,1.12,3.22,1.8,4.78,2.14,4.89,5.1,9.38,8.81,13.35,2.2,2.35,4.44,3.99,6.86,5.01,1.78.75,2.68,1.99,2.7,3.68,0,.62-.19,1.14-.6,1.6-2.81,3.15-6.35,4.81-10.5,4.95l-.6.02c-1.17.05-2.37.09-3.58-.12-2.04-.36-3.67-1.48-5.25-2.57l-.65-.44c-.32-.21-.63-.44-.96-.68.05.27.11.53.17.79.11.46.21.91.27,1.37.42,3.03.13,6.15-.89,9.55-2.17,7.18-5.22,13.11-9.32,18.12-1.29,1.58-2.54,2.83-3.81,3.8-3.35,2.57-7.25,3.2-11.89,1.9,1.08.65,2.14,1.41,3.14,2.32,2.49,2.25,4.38,5.19,5.94,9.25,2,5.2,3.18,11.03,3.62,17.81.28,4.33-1.06,8.37-2.55,12.09-1.05,2.63-2.48,5.25-4.23,7.79-3.94,5.71-7.1,10.6-9.71,15.9-2.55,5.17-4.23,10.73-5,16.53-.48,3.62-.34,7.38.43,11.52.48,2.58.66,5.18.54,7.75-.11,2.43-1.48,4.12-3.85,4.76-1.05.28-2.44.58-3.92.38-1.82-.24-3.14-1.05-4.04-2.47l-.02-.03c-1.62,2.18-5.71,2.61-8.39.85-1.88-1.24-3.03-3.1-3.61-5.83-.75-3.55.36-6.72,1.41-9.09,2.32-5.25,3.52-10.86,4.39-15.65.61-3.39,1.29-7.41,1.68-11.47l.16-1.64c.31-3.11.64-6.32.33-9.47-.22-2.16-.77-3.8-1.76-5.15-.08-.11-.14-.19-.2-.26-.07.11-.15.23-.19.29-2.65,4.29-5.55,7.42-8.88,9.58-3.51,2.27-7.41,3.97-11.6,5.04-2.56.65-5.95,1.41-9.54,1.43-1.31.01-2.63.04-3.94.07-2.23.05-4.54.11-6.81.06-3.16-.07-6.82-.25-10.35-1.42-5.11-1.69-9.29-4.91-12.8-9.85-1.59-2.24-2.98-4.8-4.52-8.3-.05-.12-.1-.24-.14-.37-.01-.03-.02-.06-.03-.09-.11.49-.15.98-.19,1.49-.03.33-.06.66-.1.98-.49,3.53-.83,6.23-1.09,8.76-.28,2.69-.17,5.44-.02,7.78.39,6.25,2.65,12.11,4.84,17.77.39,1.01.78,2.02,1.16,3.03.29.78.6,1.56.9,2.33.91,2.32,1.85,4.71,2.46,7.19.86,3.51.13,6.81-2.14,9.82-1.99,2.62-4.83,3.52-8.45,2.67-1.91-.45-2.69-.88-3.71-2.24,0,.02-.02.04-.03.06-.04.1-.08.2-.13.3-.6,1.16-1.32,2.35-2.52,3.2-.92.66-1.89.98-2.84.98Zm-12.9-105.05c-5.49,3.77-9.22,9.04-11.35,16.02-1.08,3.53-1.73,7.37-1.96,11.42-.26,4.66.64,8.6,2.75,12.04,2.45,3.99,5.33,7.8,8.11,11.47l.56.74c.96,1.27,2.01,2.51,3.02,3.71,1.39,1.65,2.83,3.35,4.08,5.17,3.31,4.8,4.86,10.54,4.89,18.06,0,1.58-.23,3.16-.47,4.69l-.06.43c-.54,3.6-.96,7.46-1.33,12.13-.24,3.08.35,5.19,1.92,6.85.36.38.74.68,1.13.89-.07-.06-.15-.13-.22-.2-1.52-1.49-2.32-3.2-2.38-5.09-.01-.39,0-.79,0-1.18v-.55c.15-3.91.53-7.73,1.13-11.34,1.27-7.6.73-14.13-1.66-19.98-1.37-3.36-3.58-6.17-5.76-8.72-4.25-4.95-8.22-10.29-12.16-16.34-2.48-3.82-3.48-8.29-3.06-13.67.35-4.51,1.14-8.47,2.4-12.09,2.11-6.06,5.61-10.92,10.41-14.45Zm18.44,97.6h-.01c-.32,0-.5.12-.7.79-.38,1.26-.81,2.25-1.34,3.13-.53.87-1.02,1.48-1.6,1.97,0,0-.02.01-.02.02.13-.08.26-.16.39-.25.96-.69,1.58-1.64,2.21-2.85.03-.06.06-.14.09-.21.12-.3.3-.76.84-.95l.36-.13.22.31c.64.92,1.09,1.42,1.74,1.76-.56-.48-.98-1.11-1.27-1.88-.07-.2-.14-.41-.2-.61l-.08-.27c-.22-.72-.32-.84-.63-.84Zm-8.73-.97v.53c0,.38,0,.76,0,1.14.05,1.65.73,3.09,2.08,4.41.91.89,1.33.9,2.35.03.49-.42.92-.96,1.4-1.73.49-.8.88-1.72,1.24-2.9.13-.45.45-1.49,1.65-1.5h.02c1.1,0,1.39.92,1.56,1.47l.11.35c.05.18.11.37.18.55.45,1.21,1.24,1.91,2.49,2.2,2.58.6,4.32-.04,5.79-2.16,2.08-2.98,2.57-6.16,1.46-9.48-1.73-5.15-3.68-10.14-5.36-14.33-2.39-5.96-3.67-11.71-3.91-17.56-.15-3.67.29-7.22.75-10.2.16-1.02.27-2.06.39-3.09.26-2.34.53-4.76,1.29-7.08.09-.28,0-.58-.12-.95l-.12-.36c-.4-1.19-.82-2.41-1.17-3.64-.83-2.92-1.47-5.92-2.08-8.83-.52-2.45-1.06-4.99-1.71-7.45-.28-1.05-.54-2.11-.8-3.17-.63-2.56-1.27-5.2-2.18-7.72-1.11-3.09-2.65-5.24-4.83-6.78-.6-.42-1.17-.61-1.84-.62-2.93-.02-5.31,1.35-7.23,2.7-4.9,3.43-8.45,8.26-10.57,14.34-1.23,3.54-2,7.42-2.34,11.84-.4,5.15.55,9.42,2.9,13.04,3.91,6.01,7.86,11.32,12.08,16.24,2.24,2.61,4.51,5.5,5.93,8.99,2.46,6.02,3.02,12.73,1.72,20.52-.6,3.57-.97,7.33-1.11,11.2Zm89.76.76c1.04,0,1.25.93,1.34,1.33.22.98.52,1.83.94,2.57.9,1.64,2.18,2.14,4.28,1.67,1.83-.41,2.79-1.5,2.88-3.25.11-2.17,0-4.44-.32-6.76-.09-.67-.2-1.34-.32-2.01-.26-1.54-.52-3.14-.56-4.76-.11-5.23.72-10.5,2.56-16.11,1.94-5.93,5.07-11.34,7.88-15.85.89-1.43,1.85-2.83,2.79-4.18,1.33-1.92,2.7-3.91,3.84-5.97,3.87-6.97,5.26-12.71,4.5-18.6-.55-4.33-1.46-9.98-3.56-15.34-2.43-6.2-6.46-10.24-12.3-12.34-3.02-1.09-4.68-.57-6.34,1.99-1.26,1.95-2.24,4.23-3.07,7.16-.79,2.79-.92,5.74-1.05,8.59-.04.85-.08,1.71-.13,2.56-.3,4.67-1.05,8.42-2.37,11.8-1.45,3.73-3.26,7.34-5.02,10.84l-.56,1.12c-.25.51-.23.68.16,1.03,1.11,1,1.89,2.32,2.39,4.05.67,2.33.9,4.54.67,6.56-.19,5.34-.87,10.34-1.45,14.09-1.11,7.18-2.46,14.79-5.64,21.93-1.11,2.48-1.47,4.57-1.15,6.58.26,1.64.72,3.5,2.13,4.93,1.24,1.25,2.33,1.69,3.53,1.45,1.69-.35,2.5-1.45,2.62-3.55.03-.51.09-1.45,1.22-1.53.04,0,.08,0,.12,0Zm.12,3.62h.02c.42.01.63.36.77.6.41.65.9,1.14,1.49,1.49-.38-.35-.71-.79-1-1.32-.46-.83-.8-1.76-1.04-2.84-.13-.57-.21-.56-.42-.55-.23.02-.25.02-.29.58-.1,1.59-.56,2.75-1.4,3.51.46-.25.84-.58,1.11-.97.08-.12.34-.5.76-.5Zm20.16-100.87c3,2.37,5.31,5.59,6.89,9.62,2.14,5.46,3.06,11.19,3.62,15.58.78,6.12-.64,12.04-4.62,19.21-1.17,2.11-2.56,4.12-3.89,6.06-.93,1.34-1.89,2.73-2.76,4.14-2.78,4.46-5.87,9.81-7.78,15.64-1.8,5.5-2.62,10.66-2.51,15.78.03,1.54.29,3.1.54,4.61.11.68.23,1.35.32,2.03.33,2.38.44,4.72.33,6.95-.06,1.31-.56,2.37-1.42,3.11,1.19-.68,1.85-1.82,1.92-3.36.12-2.49-.06-5.01-.53-7.52-.79-4.24-.93-8.11-.44-11.83.78-5.91,2.5-11.58,5.09-16.84,2.64-5.35,5.82-10.28,9.78-16.03,1.71-2.48,3.09-5.03,4.12-7.59,1.45-3.62,2.75-7.53,2.49-11.66-.43-6.68-1.59-12.41-3.55-17.52-1.5-3.9-3.3-6.72-5.67-8.86-.62-.56-1.27-1.07-1.93-1.52Zm-26.18,43.2c.44,0,.74.4,1.02.8,1.1,1.51,1.72,3.3,1.95,5.64.32,3.26,0,6.52-.33,9.67l-.16,1.64c-.39,4.1-1.07,8.14-1.69,11.55-.88,4.86-2.1,10.54-4.46,15.88-.99,2.23-2.03,5.21-1.34,8.48.52,2.46,1.53,4.12,3.18,5.21.06.04.12.08.18.11-.24-.2-.45-.41-.65-.6-1.61-1.63-2.12-3.68-2.4-5.48-.35-2.21.04-4.48,1.23-7.14,3.14-7.03,4.47-14.56,5.57-21.68.58-3.73,1.26-8.7,1.44-14v-.04c.22-1.88,0-4.02-.63-6.19-.45-1.54-1.13-2.72-2.09-3.58-.72-.65-.83-1.31-.38-2.22l.56-1.12c1.74-3.47,3.55-7.07,4.98-10.75,1.27-3.29,2.01-6.94,2.3-11.51.05-.84.09-1.69.13-2.54.13-2.91.26-5.92,1.09-8.82.86-3.03,1.87-5.39,3.19-7.43.37-.57.74-1.06,1.14-1.46-.87.72-1.58,1.61-2.17,2.71-2.2,4.05-3.34,8.38-3.5,13.21-.19,5.79-.56,11.42-2.83,16.66l-.48,1.11c-2.25,5.2-4.59,10.58-7.9,15.37-1.59,2.29-3.43,4.29-5.55,6.01,2.81-2.04,5.31-4.87,7.62-8.6.28-.45.54-.88.99-.89,0,0,.02,0,.03,0Zm-81.69-44.89c1.75,1.57,3.09,3.66,4.06,6.36.92,2.57,1.58,5.24,2.21,7.82.26,1.05.52,2.11.79,3.16.65,2.48,1.2,5.03,1.72,7.5.61,2.89,1.25,5.88,2.07,8.76.34,1.21.75,2.42,1.15,3.59l.12.36c.17.49.31,1.01.13,1.58-.72,2.23-.99,4.6-1.24,6.89-.12,1.04-.23,2.09-.39,3.13-.45,2.94-.88,6.43-.74,10.01.24,5.74,1.49,11.37,3.84,17.23,1.68,4.21,3.64,9.21,5.38,14.38,1.22,3.63.68,7.12-1.59,10.37-.44.63-.91,1.16-1.41,1.57.66-.42,1.26-.97,1.79-1.68,2.09-2.75,2.75-5.77,1.97-8.98-.59-2.42-1.52-4.78-2.42-7.06-.31-.78-.61-1.56-.91-2.35-.38-1.01-.77-2.01-1.16-3.02-2.22-5.73-4.51-11.66-4.9-18.07-.15-2.38-.26-5.18.03-7.94.26-2.54.6-5.26,1.1-8.8.04-.31.07-.62.09-.93.08-.9.15-1.83.61-2.79l.3-.63.5.49c.45.44.61.9.75,1.28.04.11.08.21.12.31,1.51,3.43,2.87,5.94,4.42,8.12,2.01,2.84,4.26,5.08,6.78,6.78-.37-.27-.73-.55-1.09-.84-4.95-4.03-7.76-9.54-9.65-13.88-2.68-6.16-4.16-12.5-5.67-19.54-1.16-5.38-2.47-11.48-4.55-17.23-.88-2.44-2.3-4.43-4.22-5.93Zm-15.13-31.94s-.02.07-.02.1c-.54,1.97-.99,3.74-1.1,5.54v.25c-.18,2.74-.34,5.58.53,8.26.46,1.41,1.2,2.74,1.91,4.02l.35.63c1.82,3.32,4.12,6.33,6.12,8.84.5.63.92.87,1.58.91,1.66.09,3.26.62,4.91,1.6,2.83,1.69,4.85,4.17,6.01,7.38,2.1,5.82,3.42,11.95,4.59,17.36,1.5,7,2.97,13.28,5.61,19.36,1.96,4.5,4.61,9.63,9.36,13.5,3.59,2.93,7.75,4.61,12.35,5,3.24.28,6.56.24,9.77.21h1.13c3.12-.04,6.79-.18,10.37-.98,8.72-1.95,15.07-5.95,19.42-12.23,3.26-4.7,5.57-10.04,7.8-15.2l.48-1.11c2.21-5.08,2.56-10.61,2.75-16.3.17-5,1.35-9.46,3.62-13.66.89-1.64,2.01-2.87,3.43-3.74,1.12-.69,2.2-1.36,3.33-1.9.66-.32,1.07-.64,1.2-1.34.18-.95.66-1.78,1.12-2.59l.92-1.62c1.04-1.84,2.09-3.68,3.17-5.5,3.49-5.88,4.62-12.3,3.36-19.1-.21-1.12-.55-2.25-.88-3.34-.06-.2-.12-.4-.18-.6-.77,2-1.89,3.82-2.89,5.45-2.82,4.56-7.03,7.76-12.53,9.51-4.58,1.46-9.48,1.66-15,.61-3.79-.72-7.79-1.66-11.39-3.64-6.09-3.36-10.88-8.51-14.63-15.73-1.58-3.04-3.11-6.37-3.62-10.14-.19-1.36-.54-2.56-1.07-3.66-.17-.35-.46-.79-.88-.89-.44-.11-.93.19-1.26.45-.2.16-.37.37-.56.7-.45.78-.76,1.69-.99,2.84-.14.7-.25,1.4-.36,2.11-.26,1.64-.53,3.34-1.13,4.97-2.14,5.8-5.07,10.69-8.93,14.93-3.25,3.56-6.77,6.19-10.78,8.04-5.95,2.75-12.51,3.39-19.49,1.92-7.6-1.6-13.48-5.37-17.48-11.21,0-.01-.02-.03-.03-.05Zm136.15-46.3c-.08,0-.15,0-.23,0-1.66.07-3.19.79-4.81,2.26-2.17,1.96-3.35,3.79-3.84,5.91-.12.53-.04.67.3.83,3.23,1.56,4.79,4.23,4.64,7.95-.07,1.65-.4,3.54-2.29,4.96-2.02,1.52-3.09,3.05-3.46,4.94-.17.86-.31,1.72-.45,2.59-.37,2.22-.74,4.53-1.55,6.72-.03.07,0,.18.05.36l.03.11c.16.59.31,1.18.47,1.76.27,1.04.55,2.09.85,3.12,1.74,5.99,1.48,12-.8,17.87-.92,2.37-2.22,4.56-3.47,6.68-.52.89-1.05,1.77-1.55,2.67l-.4.71c-.69,1.23-1.4,2.5-1.86,3.84-.21.62,0,.81.25.94.45.25.89.51,1.34.77,1.2.71,2.34,1.37,3.61,1.79,3.76,1.23,6.89.74,9.56-1.48,1.25-1.04,2.43-2.24,3.5-3.54,2.93-3.56,5.3-7.68,7.26-12.58,1.58-3.96,3.09-8.2,2.76-12.78-.19-2.56-.84-4.81-2-6.9-.58-1.04-1.39-1.89-2.25-2.79-.29-.31-.59-.61-.87-.93-.03-.04-.07-.07-.11-.11-.19-.18-.78-.74-.25-1.37.39-.46,1.05-.51,1.73-.13.22.12.38.3.52.45l.33.35c.36.38.73.77,1.07,1.17,3.02,3.54,5.66,5.89,8.54,7.62,1.32.79,2.8,1.51,4.73,1.36h.04c3.71.04,6.91-1.28,9.39-3.92,1.04-1.11,1.06-1.37.21-2.51-.31-.42-.73-.73-1.28-.95-2.81-1.13-5.01-3.05-6.79-4.79-2.96-2.89-5.57-6.43-7.98-10.82-1.94-3.54-3.29-7.37-4.61-11.31-1.11-3.31-2.81-6.07-5.05-8.19-1.39-1.31-3.09-2.64-5.27-2.64ZM27.12,91.23c.3,0,.67.09.91.47.41.65-.13,1.17-.33,1.37-.22.22-.42.42-.62.62-.53.54-1.07,1.1-1.7,1.57-.95.7-1.54,1.63-1.87,2.91-.45,1.77-.54,3.64-.63,5.81v.03c-.06.49.06,1.5.3,2.62,1.36,6.36,3.37,11.97,6.12,17.15,1.09,2.04,2.39,3.79,3.88,5.2,2.71,2.56,6.06,4.05,9.97,4.42,2.68.25,5.01-.2,7.11-1.4.46-.26.72-.44.76-.53,0-.05-.1-.23-.52-.72-2.12-2.5-3.91-5.29-5.63-7.98l-.35-.54c-2.71-4.23-3.61-9.01-2.82-15.06.23-1.74.7-3.43,1.16-5.07.13-.46.26-.92.38-1.38.11-.43.08-.77-.12-1.18-2.55-5.24-3.75-9.79-3.78-14.33-.01-1.72-.52-3.14-1.54-4.36-.82-.97-1.49-2.11-1.99-3.39-.82-2.07-.63-4.05.56-5.87.68-1.04,1.63-1.8,2.56-2.46.36-.26.58-.43.67-.69.72-2.12,1.37-4.04.99-6.15-.52-2.95-1.73-4.66-3.81-5.39-3.48-1.23-5.84-1.25-9.04,2.06-2.3,2.38-3.6,5.33-4.85,9.03-2.52,7.47-5.04,12.96-8.16,17.8-2.36,3.66-5.11,6.26-8.42,7.94-1.04.53-2.01,1.08-2.9,1.65-.6.39-.93.76-1,1.15-.07.39.11.87.55,1.47.69.93,1.59,1.6,2.69,1.97,2.6.88,4.92.96,7.09.22,1.56-.53,2.81-1.01,3.95-1.52,1.85-.82,3.65-1.95,5.37-3.35.76-.62,1.46-1.38,2.13-2.11.3-.32.6-.65.9-.96.37-.38.88-.83,1.6-.96.09-.02.25-.05.42-.05Zm29.43,41.67s.07,0,.1,0c.31,0,.61.04.91.11-.35-.15-.69-.29-1.04-.4l.28.11-.92.2c.22-.01.44-.02.67-.02Zm102.03-.84c-.33.19-.66.38-.98.58.34-.12.69-.19,1.05-.23l-.26-.14.19-.21Zm27.97-40.77s.02.02.03.02c.06.06.12.11.16.16.28.31.56.61.85.91.86.9,1.76,1.84,2.4,3,1.23,2.21,1.93,4.6,2.13,7.31.35,4.79-1.2,9.16-2.83,13.23-1.99,5-4.42,9.2-7.41,12.85-1.11,1.36-2.34,2.59-3.64,3.68-.05.04-.1.08-.15.12.24-.16.47-.33.71-.51,1.21-.93,2.4-2.12,3.65-3.64,4.02-4.91,7-10.72,9.14-17.78.98-3.25,1.26-6.23.86-9.12-.06-.43-.16-.85-.26-1.28-.15-.65-.3-1.31-.36-2.08l-.09-1.08,1.55,1.12c.43.32.82.6,1.22.87l.06.04c-1.97-1.54-3.91-3.45-6.04-5.94-.33-.39-.68-.76-1.04-1.13l-.3-.31c-.14-.15-.24-.26-.33-.31-.11-.06-.23-.11-.32-.12Zm-26.1,40.57c.32,0,.68.02,1.04.15.18.06.36.13.54.2l-.26-.16c-.49-.3-.94-.31-1.32-.19ZM41.69,63.85c-.06,1.69-.6,3.26-1.12,4.8-.23.68-.67,1-1.06,1.28-.85.61-1.71,1.29-2.31,2.2-1.02,1.55-1.17,3.17-.47,4.95.47,1.18,1.08,2.23,1.83,3.11,1.18,1.41,1.76,3.04,1.78,5,.03,4.38,1.2,8.8,3.68,13.9.3.62.36,1.22.19,1.87-.12.46-.25.92-.38,1.39-.45,1.6-.91,3.25-1.13,4.92-.76,5.8.09,10.37,2.67,14.39l.35.54c1.71,2.66,3.47,5.42,5.55,7.87.48.56.83,1.03.74,1.56-.04.21-.14.39-.3.55.09-.05.18-.11.27-.16.29-.18.59-.29.88-.35-.27-.19-.52-.44-.77-.76-2.03-2.54-4.36-5.6-6.22-8.98l-.35-.63c-.74-1.33-1.5-2.7-1.99-4.2-.93-2.85-.76-5.79-.59-8.62v-.25c.12-1.9.59-3.73,1.14-5.75l.03-.14c.06-.27.17-.84.78-.94.59-.1.85.39.96.6.02.04.04.08.07.12,2.01,2.93,4.52,5.33,7.5,7.16-5.37-3.81-8.67-7.99-10.38-13.11-1.56-4.67-2.29-8.35-2.36-11.91-.02-1.13-.38-2.15-1.06-3.04-1.09-1.42-1.93-2.67-2.48-4.12-.76-2-.49-3.83.81-5.46,1.21-1.5,2.55-2.65,4.08-3.46-.13-.02-.26-.06-.37-.16-.38-.32-.27-.89-.23-1.11.2-1.04.26-2.1.25-3.08Zm-20.4,33.41c.11,0,.23.02.36.07l.19.07.09.19c.18.38.1.73.04.99-.01.06-.03.11-.04.17-.38,2.34-.69,5.1-.17,7.84.98,5.15,2.7,10.28,5.27,15.68,1.45,3.05,3.02,5.3,4.94,7.08.73.67,1.49,1.27,2.29,1.8-.61-.44-1.19-.93-1.75-1.46-1.57-1.48-2.94-3.32-4.07-5.46-2.8-5.26-4.83-10.96-6.22-17.41-.13-.59-.41-2.05-.32-2.92.1-2.22.18-4.14.66-6,.39-1.5,1.12-2.63,2.25-3.46.56-.42,1.06-.92,1.58-1.46.2-.21.4-.41.61-.61.06-.05.12-.11.16-.16-.04.01-.12.02-.26.04-.36.07-.67.26-1.07.67-.3.31-.59.63-.88.94-.7.76-1.42,1.54-2.24,2.21-.52.42-1.05.82-1.58,1.2.05,0,.11-.02.17-.02Zm139.63,33.52c.41,0,.83.11,1.23.32-.32-.35-.54-.91-.25-1.78.49-1.43,1.23-2.74,1.94-4.01l.39-.71c.5-.91,1.03-1.8,1.56-2.7,1.23-2.08,2.51-4.24,3.4-6.53,2.19-5.66,2.45-11.45.77-17.23-.3-1.04-.58-2.1-.86-3.15-.15-.59-.31-1.17-.47-1.76l-.03-.1c-.07-.25-.17-.6-.03-.98.77-2.1,1.14-4.35,1.5-6.53.14-.88.29-1.75.46-2.62.39-2.03,1.47-3.46,2.61-4.53-.16.14-.33.27-.51.4-1.63,1.13-2.21,2.85-2.56,4.38-.24,1.03-.41,2.09-.58,3.12-.26,1.56-.53,3.17-1.01,4.72-1.4,4.55-2.89,7.89-4.82,10.83-1.49,2.26-3.28,4.16-5.37,5.69,2.45-1.63,4.44-3.71,6.03-6.29,1.05-1.71,2.25-3.64,2.98-5.73.06-.16.14-.29.21-.39l.19-.32.94-.13.12.42c.14.51.3,1.03.45,1.54.34,1.12.69,2.27.9,3.45,1.3,7.04.13,13.7-3.48,19.79-1.08,1.81-2.12,3.65-3.16,5.48l-.92,1.62c-.44.77-.85,1.49-1,2.28-.12.66-.42,1.1-.78,1.44.04,0,.09,0,.13,0Zm-95.76-17.43c.98.14,1.95.23,2.91.28-.81-.06-1.61-.15-2.4-.23l-.51-.05Zm.85-49.05c-.58,0-1.17,0-1.75,0-2.33,0-4.68.31-6.96.6-.77.1-1.53.2-2.3.28l-.27.03c-1.64.19-3.33.38-4.88.95-.84.31-1.67.64-2.51.98-1.06.43-2.16.87-3.26,1.25-2.07.72-3.82,2-5.34,3.89-1.08,1.34-1.3,2.81-.66,4.47.51,1.34,1.31,2.52,2.34,3.87.81,1.06,1.24,2.28,1.26,3.62.07,3.46.79,7.04,2.31,11.61,1.68,5.04,5,9.15,10.43,12.91,2.83,1.96,6.2,3.11,10.3,3.52l1.05.11c2.72.29,5.29.55,7.93.06,6.08-1.13,10.58-3.17,14.16-6.42,4.44-4.03,7.23-7.57,9.06-11.49,1.65-3.54,3.29-7.34,3.72-11.53.2-1.92.64-3.41,1.39-4.66,1.12-1.87,2.94-2.01,4.72-1.97,1.71.03,2.28,1.37,2.74,2.46.47,1.11.68,2.25.88,3.36.12.64.24,1.31.41,1.93,1.38,5.14,3.8,9.94,7.41,14.67,3.12,4.09,6.58,6.97,10.59,8.8,2.52,1.15,5.32,2.02,8.82,2.73,4.9,1,8.93.99,12.69-.03,5.46-1.47,9.56-4.4,12.55-8.93,1.88-2.86,3.33-6.12,4.7-10.58.46-1.49.72-3.07.98-4.59.17-1.04.35-2.12.6-3.18.39-1.72,1.05-3.65,2.96-4.98.38-.27.73-.6,1.1-.96.18-.18.37-.36.56-.53.7-.63,1.03-1.41,1.01-2.37v-.31c-.03-.35-.04-.71.02-1.08.44-2.48-1.53-5.46-4.3-6.49-2.31-.87-4.77-1.37-7.14-1.86l-1.17-.24c-3.54-.74-7.21-1.51-10.93-1.72-2.12-.12-4.28-.12-6.37-.12-1.39,0-2.79,0-4.18-.04-2.25-.05-4.46.31-6.52.7-3.36.65-6.59,1.92-9.71,3.16-1,.4-2.01.79-3.02,1.17-1.34.5-2.68,1.1-3.97,1.68-1.87.84-3.81,1.71-5.83,2.32-3.56,1.07-7.38,1.31-11.36.71-2.13-.32-4.01-1.36-5.83-2.36l-.47-.26c-5.7-3.12-11.86-4.25-17.13-4.93-1.7-.22-3.47-.21-5.17-.21-.95,0-1.9,0-2.85-.02h-1.4c-.47,0-.95,0-1.42,0Zm26.23,38.84c-.66.71-1.36,1.44-2.12,2.17.68-.64,1.34-1.32,2-2.04.04-.04.08-.09.12-.13Zm14.97-25.68c.23.21.45.51.65.93.58,1.19.96,2.49,1.16,3.96.5,3.62,1.98,6.86,3.52,9.81,2.11,4.06,4.55,7.44,7.36,10.2-.85-.9-1.68-1.88-2.49-2.94-3.69-4.83-6.16-9.74-7.58-15.01-.18-.67-.3-1.35-.43-2.01-.2-1.1-.39-2.14-.81-3.13-.41-.96-.72-1.6-1.39-1.8Zm105.3,16.45c.19.17.36.35.51.56,1.22,1.65.99,2.43-.29,3.79-.57.61-1.18,1.16-1.82,1.64,1.04-.67,2-1.51,2.89-2.5.25-.28.35-.55.35-.93,0-1.15-.53-1.97-1.64-2.56Zm-210.05.93c-.18.11-.36.24-.56.38-.95.67-1.15,1.74-.5,2.73.42.64.89,1.13,1.44,1.49.09.06.19.12.29.18-.35-.31-.67-.65-.95-1.04-.61-.83-.85-1.56-.72-2.24.1-.55.43-1.04,1-1.5Zm101.47-16.97c-.39.22-.73.55-1.01,1.02-.67,1.13-1.07,2.48-1.26,4.25-.45,4.34-2.13,8.24-3.81,11.85-.51,1.1-1.1,2.17-1.77,3.23,1.91-2.88,3.49-6.04,4.79-9.55.57-1.53.83-3.18,1.08-4.78.11-.72.23-1.43.37-2.14.25-1.27.6-2.27,1.1-3.15.13-.22.29-.49.52-.73ZM28.69,56.75c-.99.59-1.93,1.43-2.84,2.52-1.61,1.94-2.88,4.28-3.87,7.15-2.03,5.88-4.39,12.12-7.81,17.84-1.95,3.26-4.21,5.82-6.85,7.75,2.51-1.58,4.68-3.81,6.58-6.77,3.08-4.77,5.56-10.2,8.05-17.58,1.04-3.08,2.38-6.61,5.07-9.4.57-.59,1.13-1.09,1.67-1.5Zm157.67.78c.29.24.56.49.82.74,2.36,2.24,4.15,5.13,5.31,8.6,1.36,4.05,2.64,7.68,4.54,11.15,2.36,4.31,4.91,7.77,7.8,10.59.93.91,1.98,1.87,3.18,2.73-1.07-.82-2.12-1.78-3.16-2.89-3.78-4.05-6.81-8.64-8.99-13.63-.7-1.59-1.27-3.25-1.83-4.85-.49-1.42-1-2.88-1.59-4.29-1.58-3.77-3.54-6.41-6.08-8.15Zm-13.27,9.21c1.9,1.62,3.04,4.08,2.66,6.25-.05.26-.03.55-.02.86v.33c.04,1.25-.42,2.3-1.33,3.13-.18.16-.35.33-.53.5-.13.13-.27.26-.41.39.31-.27.62-.52.92-.74,1.26-.95,1.81-2.17,1.89-4.2.12-2.97-.92-5.11-3.18-6.52Zm-106.46-4.03c1.34.03,2.59.05,3.77.06,4.48.06,8.02.11,11.5.85,4.91,1.05,10.1,2.4,14.74,5.13,1.42.83,2.62,1.35,3.79,1.64,3.25.79,6.69.59,10.5-.63,1.96-.63,3.88-1.49,5.73-2.32,1.48-.66,3-1.34,4.55-1.92.96-.35,1.91-.73,2.86-1.1,2.2-.87,4.48-1.77,6.84-2.36,4.17-1.04,8.02-1.46,11.78-1.28,1.37.07,2.77.07,4.13.06,1.79,0,3.63,0,5.45.15,2.46.21,4.64.49,6.65.85.01,0,.02,0,.03,0,0,0,0-.02-.01-.03-.3-.71-.57-1.43-.85-2.15-.45-1.18-.92-2.4-1.47-3.54-1.94-4.04-5.06-6.74-9.26-8.01-2.24-.68-4.61-1.01-6.9-1.33l-.24-.03c-.89-.12-1.79-.23-2.68-.33-2.47-.29-5.03-.59-7.48-1.3-2.3-.67-4.66-.7-7.21-.08l-.92.23c-1.29.32-2.63.65-3.97.86-2.56.4-5.12.78-7.69,1.16-3.34.5-6.8,1.01-10.19,1.57-5.24.87-10.61,1.31-15.8,1.73-1.44.12-2.88.24-4.32.36-1.74.15-3.48.33-5.21.51-1.29.13-2.59.27-3.88.39-.83.08-1.65.19-2.48.3-2.13.29-4.34.58-6.54.32-1.68-.2-2.86.42-4.21,1.49-.24.19-.48.37-.72.55-.23.18-.47.36-.7.54-.72.56-1.15,1.06-1.39,1.61-.95,2.2-1.68,4.49-2.17,6.81-.03.16-.04.26-.05.32.06,0,.18,0,.37-.03,5.98-.84,10.83-1.22,13.65-1.08Zm103.65,2.48c.18.06.36.13.53.19.24.09.48.19.71.31-.35-.52-.22-1.12-.15-1.4.53-2.3,1.84-4.34,4.14-6.42.19-.17.38-.34.57-.49-2.49,1.62-4.54,4.2-5.1,6.84-.07.33-.19.69-.52.89-.06.03-.11.06-.17.08Zm-112.89-12.28c-.93.61-1.8,1.31-2.65,2l-.19.16c-.67.54-1.13,1.22-1.38,2.04l-.27.86c-.47,1.51-.96,3.07-1.17,4.63-.14,1.01-.51,1.76-1.15,2.29.44-.12.88-.21,1.32-.29-.02-.02-.04-.04-.06-.06-.31-.33-.26-.81-.17-1.24.5-2.39,1.25-4.74,2.23-7,.4-.91,1.11-1.55,1.69-2,.24-.18.47-.37.71-.55.24-.18.47-.36.71-.54.13-.1.25-.2.38-.29Zm102.37,9.8c.42.08.83.17,1.25.25-.18-.19-.33-.44-.44-.75-.28-.76-.58-1.51-.88-2.26-.31-.79-.63-1.58-.92-2.38-1.23-3.32-3.23-5.93-5.94-7.79,1.96,1.5,3.54,3.49,4.71,5.93.57,1.18,1.04,2.42,1.5,3.61.27.71.55,1.42.84,2.12.09.23.32.76,0,1.15-.03.04-.07.08-.11.11Zm-120.67-5.64c1.26,1.09,2.08,2.76,2.48,5.03.05.27.08.55.1.81,0-.18-.01-.35-.02-.53-.11-2.46-.95-4.21-2.56-5.32ZM62.75,7.93c-.93.2-1.11.42-1.26,1.47-.15.98-.16,1.95-.17,2.98v.53c-.04,2.45-.02,4.94,0,7.36.04,4.39.08,8.92-.21,13.39-.18,2.76-.35,5-.53,7.05-.12,1.34-.25,2.68-.38,4.01-.2,1.99-.39,3.99-.55,5.98-.04.54-.21.91-.55,1.2.51-.22,1.04-.36,1.61-.42-.05-.04-.09-.08-.14-.13-.39-.43-.36-1.08-.28-1.89.11-1.17.23-2.35.35-3.52.17-1.7.35-3.4.5-5.1.4-4.5.76-8.9.76-13.28,0-4.18-.01-8.36-.02-12.53v-2.32c0-1.37.06-2.5.21-3.55.08-.55.29-.95.65-1.22Zm1.01,42.9h.01c1.27.03,2.59-.14,3.98-.31.68-.08,1.37-.17,2.05-.23,1.75-.16,3.5-.35,5.25-.53,3.19-.34,6.48-.68,9.74-.88,4.49-.27,9-.87,12.83-1.41,3.98-.57,8.02-1.2,11.93-1.8l3.8-.59c1.78-.27,3.62-.55,5.41-.91.27-.05.89-.18.99-.28.01-.11-.19-.66-.34-1.06l-.85-2.31c-.87-2.35-1.73-4.69-2.58-7.05-.5-1.38-.98-2.77-1.46-4.15-1.15-3.32-2.35-6.75-3.73-10.05-1.3-3.1-2.54-6.37-3.79-10-.79-2.31-1.59-4.61-3-6.54-.61-.83-1.19-1.08-2.13-.9-2,.38-4,.77-6,1.17-3.32.65-6.76,1.33-10.15,1.92-3.84.67-7.74,1.3-11.52,1.92-3.44.56-6.87,1.11-10.3,1.7-.62.11-.75.33-.82.77-.14,1-.21,2.08-.2,3.41v2.32c.02,4.18.03,8.36.03,12.54,0,4.42-.36,8.85-.77,13.37-.15,1.71-.33,3.41-.5,5.11-.12,1.17-.24,2.34-.35,3.52-.02.25-.1.99.03,1.13.12.13.83.14,1.09.14.25,0,.51,0,.8,0h.55ZM103.66,1.08c.42.22.79.57,1.15,1.06,1.51,2.05,2.32,4.43,3.11,6.72,1.27,3.7,2.5,6.95,3.79,10.03,1.39,3.32,2.59,6.77,3.75,10.1.48,1.38.96,2.77,1.46,4.14.84,2.35,1.71,4.7,2.58,7.04l.85,2.31c.33.9.53,1.44.26,1.91-.05.08-.1.16-.17.22.42-.1.83-.2,1.24-.3l.46-.11c-.31-.12-.61-.39-.81-.94-.17-.47-.32-.94-.48-1.41-.21-.63-.41-1.25-.65-1.87-.46-1.2-.93-2.4-1.41-3.6-.73-1.86-1.49-3.78-2.19-5.69-.4-1.08-.77-2.17-1.15-3.26-.61-1.76-1.24-3.59-1.94-5.34l-.62-1.53c-1.6-3.99-3.26-8.11-4.63-12.27-.5-1.53-1.23-3.52-2.41-5.31-.75-1.13-1.34-1.71-2.2-1.91Zm-51.78,30.19c-.06.15-.13.29-.19.44l-.06.12s-.05.1-.06.14c.03-.04.1-.08.14-.1l.1-.05c.09-.04.17-.08.26-.12,0,0-.01-.01-.02-.02-.11-.12-.16-.26-.17-.41Zm2.56-.54c.53,0,1.08.07,1.63.2.13.03.2.04.23.03,0-.02,0-.09,0-.21-.02-.4-.03-.8-.04-1.2-.01-.56-.02-1.12-.07-1.67-.37-4.77-.59-8.66-.69-12.25v-.51c-.01-.38-.02-.76,0-1.14.17-2.3.7-5.18,3.29-7.1,1.92-1.42,3.61-1.74,5.16-.98,1.07.52,2.1.6,3.47.26.17-.04.37-.06.56-.07.44-.03.52-.06.54-.14.06-.25-.16-.52-.51-.89-.08-.09-.16-.18-.24-.26-.03-.04-.1-.09-.16-.14-.06-.04-.11-.08-.16-.13-1.21-1.06-2.76-1.33-4.25-1.52-4.4-.57-8.23,2.27-8.91,6.6-.2,1.3-.02,2.58.18,3.93.1.68.21,1.39.25,2.1l.09,1.18c.16,2.11.32,4.28.06,6.46-.33,2.74-.96,5.21-1.92,7.54-.02.04-.03.08-.04.11.01,0,.02,0,.04,0,.48-.12.97-.17,1.47-.17Zm10.15-23.53l-.31.25c.28-.05.56-.1.84-.14-.18-.03-.35-.06-.53-.11Zm4.96-1.19c0,.06-.02.12-.03.18-.04.17-.11.3-.2.41l.79-.13c-.2-.09-.39-.24-.56-.47Zm39.52,121.49c.72,3.41,1.09,6.86,1.45,10.32.47,4.52.46,9-.43,13.45-.96,4.78-2.01,9.53-3.53,14.17-.09.26-.32.64.06.78.37.14.46-.26.56-.53.08-.22.16-.44.23-.66.94-2.77,1.55-5.62,2.25-8.45,1.07-4.36,1.96-8.74,1.88-13.25-.08-4.45-.54-8.87-1.24-13.26-.28-1.73-.58-3.47-1.3-5.09-.22-.5-.43-1.04-1.27-1.05.66,1.19,1.09,2.35,1.35,3.58Zm-1.99,39.19c.34-.16.46-.51.57-.82.08-.22.16-.45.23-.67.76-2.21,1.3-4.51,1.83-6.73.14-.59.28-1.18.42-1.76,1.03-4.2,1.98-8.73,1.89-13.38-.07-4.2-.48-8.56-1.25-13.33-.3-1.89-.61-3.58-1.36-5.26-.23-.51-.57-1.28-1.7-1.3l-.86-.02.42.76c.62,1.13,1.05,2.26,1.3,3.44.74,3.48,1.11,7.08,1.44,10.27.52,4.96.38,9.31-.42,13.3-.91,4.52-1.96,9.36-3.51,14.11l-.04.11c-.08.22-.21.54-.07.87.06.13.19.32.46.42.12.05.23.06.33.06.13,0,.24-.03.32-.07Zm-33.81-99.79c5.14-.03,10.69,1.14,15.93,3.64,2.42,1.15,4.58,2.72,6.43,4.65,2.74,2.86,3.53,6.37,2.5,10.07-1.78,6.39-4.62,12.3-9.05,17.33-3.64,4.13-8.32,6.45-13.71,7.24-4.67.68-9.33.4-13.96-.55-3.57-.73-6.25-2.93-8.88-5.26-4.84-4.3-6.86-9.86-7.52-16.1-.32-3.03-.31-6.05.43-9,1.3-5.18,4.86-8.35,9.74-9.9,5.64-1.79,11.53-2.17,18.09-2.1Zm-1.77.52c-5.03.06-10.03.47-14.86,1.89-5.25,1.55-8.79,4.93-9.95,10.46-.46,2.19-.46,4.41-.36,6.63.25,5.75,2.01,10.92,5.78,15.34,2.46,2.89,5.32,5.18,9.08,6.16,4.21,1.09,8.47,1.51,12.81,1.09,5.87-.57,10.67-3.11,14.49-7.62,2.54-3,4.33-6.43,6.02-9.93,1.14-2.36,2.22-4.71,2.49-7.4.34-3.36-.5-6.26-2.81-8.69-1.68-1.77-3.65-3.22-5.83-4.29-5.31-2.6-10.96-3.74-16.86-3.66Zm-1.39,43.29c-2.83,0-5.74-.31-8.8-.94-3.67-.75-6.4-2.98-9.11-5.38-4.48-3.98-6.92-9.2-7.69-16.42-.38-3.55-.23-6.47.44-9.18,1.28-5.09,4.67-8.54,10.08-10.26,6.23-1.97,12.71-2.19,18.24-2.13.07,0,.13,0,.2,0,5.36,0,10.87,1.27,15.94,3.69,2.46,1.17,4.67,2.77,6.57,4.76,2.82,2.94,3.73,6.59,2.62,10.55-1.96,7.03-4.96,12.76-9.16,17.53-3.59,4.08-8.31,6.57-14.01,7.4-1.75.26-3.52.38-5.33.38Zm-18.81-39.35c-2.74,1.79-4.54,4.36-5.37,7.67-.65,2.59-.78,5.4-.42,8.83.73,6.96,3.07,11.98,7.36,15.78,2.6,2.31,5.22,4.44,8.65,5.15,4.22.87,8.14,1.12,11.94.77-4.03.32-8.19-.07-12.38-1.16-3.45-.9-6.42-2.91-9.33-6.32-3.71-4.35-5.64-9.46-5.9-15.65-.09-2.14-.11-4.43.37-6.76.74-3.56,2.45-6.34,5.08-8.31Zm40.71,1.38c.91.69,1.76,1.45,2.56,2.29,2.35,2.47,3.32,5.44,2.95,9.08-.27,2.7-1.31,5.02-2.54,7.57-1.62,3.36-3.43,6.9-6.09,10.04-3.15,3.72-7.03,6.15-11.54,7.24,4.55-1.05,8.37-3.29,11.37-6.69,4.1-4.65,7.02-10.25,8.94-17.13,1.01-3.6.18-6.92-2.38-9.59-1-1.05-2.1-1.98-3.27-2.8Zm-20.49-4.82c-6.02.07-10.56.65-14.72,1.87-5.3,1.56-8.53,4.96-9.6,10.08-.46,2.22-.44,4.44-.35,6.51.26,5.95,2.11,10.87,5.67,15.04,2.77,3.25,5.57,5.16,8.82,6,4.35,1.13,8.48,1.48,12.64,1.08,5.76-.56,10.39-2.99,14.16-7.44,2.58-3.05,4.35-6.52,5.95-9.83,1.18-2.45,2.19-4.69,2.44-7.23.34-3.33-.54-6.05-2.67-8.29-1.66-1.74-3.57-3.15-5.69-4.19-5.04-2.47-10.63-3.68-16.64-3.61h0Zm71-2.41c4.97-.3,9.81.47,14.55,1.87,1.79.52,3.6,1.09,4.99,2.39,3.45,3.24,5.41,7.13,5.07,12.02-.47,6.56-2.82,12.39-6.63,17.67-4.18,5.81-9.86,8.54-17.04,8.31-5.9-.18-11.4-1.7-16.53-4.57-2.23-1.25-4.11-2.98-5.77-4.85-2.92-3.3-5.41-6.96-6.36-11.36-.96-4.46-.41-8.78,2.07-12.74.96-1.53,2.3-2.64,3.83-3.55,1.89-1.12,3.87-2.04,5.98-2.68,3.37-1.02,6.73-2.07,10.26-2.4,1.86-.17,3.72-.1,5.57-.1Zm.34.56c-6.08-.37-11.92.87-17.55,3.16-2.59,1.06-5.12,2.39-6.72,4.8-3.09,4.65-3.67,9.69-1.73,14.91,1.54,4.14,4.14,7.61,7.35,10.64,2.85,2.69,6.13,4.66,9.81,5.92,2.48.85,5.06,1.31,7.68,1.57,5.57.56,10.63-.6,14.63-4.7,5.86-6.01,9.07-13.26,9.35-21.69.19-5.75-3.66-11.04-9.17-12.7-4.44-1.34-8.95-2.21-13.67-1.91Zm1.4,42.22c-.27,0-.54,0-.81-.01-5.95-.19-11.59-1.75-16.76-4.64-2.02-1.13-3.95-2.75-5.91-4.96-3.58-4.04-5.64-7.73-6.47-11.58-1.03-4.79-.31-9.2,2.14-13.11.91-1.45,2.18-2.64,4-3.72,2.04-1.21,4.03-2.11,6.09-2.73l.36-.11c3.22-.98,6.54-1.99,10-2.31,1.48-.14,2.98-.12,4.43-.11h1.18c4.63-.27,9.44.35,14.71,1.9,1.63.48,3.67,1.08,5.19,2.51,3.85,3.62,5.56,7.68,5.22,12.42-.46,6.42-2.65,12.28-6.72,17.92-4.08,5.67-9.68,8.54-16.65,8.54Zm-3.58-41.78c-4.94,0-9.93,1.05-15.17,3.19-2.32.95-4.91,2.24-6.49,4.62-3,4.52-3.57,9.38-1.68,14.46,1.4,3.77,3.77,7.18,7.23,10.45,2.78,2.62,6.02,4.58,9.63,5.81,2.2.75,4.68,1.26,7.57,1.55,6,.6,10.65-.89,14.22-4.55,5.84-5.99,8.94-13.17,9.21-21.36.18-5.47-3.53-10.61-8.81-12.2-5.13-1.55-9.42-2.15-13.49-1.89h-.03s-.03,0-.03,0c-.72-.04-1.43-.07-2.15-.07Zm18.74,2.19c4.2,2.43,6.94,7.09,6.78,12-.28,8.44-3.47,15.85-9.49,22.02-.48.49-.98.95-1.5,1.37,1.81-1.26,3.44-2.9,4.89-4.92,3.95-5.49,6.09-11.18,6.53-17.41.31-4.42-1.29-8.23-4.91-11.62-.67-.63-1.48-1.08-2.31-1.44Zm-39.66,3.22c-1.06.78-1.86,1.62-2.47,2.6-2.3,3.68-2.98,7.85-2.01,12.37.79,3.68,2.77,7.22,6.24,11.13,1.88,2.12,3.73,3.68,5.65,4.75.43.24.87.47,1.31.7-1.65-1-3.19-2.17-4.61-3.52-3.57-3.37-6.02-6.91-7.48-10.83-2.01-5.39-1.41-10.56,1.78-15.36.46-.7,1-1.3,1.58-1.84Z"/>
  </g>
</svg>