<?xml version="1.0" encoding="UTF-8"?>
<svg id="Layer_2" data-name="Layer 2" xmlns="http://www.w3.org/2000/svg" viewBox="0 0 226.24 283.07">
  <defs>
    <style>
      .cls-1 {
        fill: #eac307;
        stroke-width: 0px;
      }
    </style>
  </defs>
  <g id="Layer_1-2" data-name="Layer 1">
    <g id="S3F22w">
      <path class="cls-1" d="m41.83.08c2.79-.4,5.93.77,9.09,1.76,2.14.67,3.67,2.16,4.74,4.09.98,1.76,1.84,3.58,2.33,5.56.45,1.85,1.09,3.63,2.12,5.26,1.03,1.63,2.34,2.29,4.21,1.55,2.43-.96,4.87-1.89,7.27-2.91,8.84-3.76,17.58-7.73,27.17-9.32,8.34-1.38,16.69-1.69,25.14-1.24,8.13.43,16.02,1.74,23.68,4.46,5.81,2.06,11.4,4.65,17.01,7.2,1.94.88,3.89,1.77,5.88,2.53,2.69,1.03,3.16.78,4.16-2.01.84-2.34,1.25-4.81,2.23-7.13,2.52-5.98,7.2-8.96,13.4-9.66,2.58-.29,5.23-.21,7.82.01,4.26.37,7.18,2.69,8.81,6.69,3.32,8.13,2.03,16.06-.94,23.91-.96,2.55-2.11,5.03-3.11,7.56-.48,1.22-.32,1.88,1.37,1.95,9.4.4,15.86,5.58,20.57,13.24,1.97,3.21,1.62,6.96.78,10.41-1.19,4.86-3.2,9.39-6.88,13.05-2.26,2.25-4.72,3.86-7.89,4.45-2.91.54-5.83,1.15-8.66,1.98-2.66.78-3.03,1.79-1.66,4.2,2.28,4.02,4.68,7.99,7.49,11.67,3.47,4.54,6.37,9.44,9.41,14.25,3.73,5.9,5.79,12.46,6.83,19.33,1.6,10.53,1.44,21.03-.7,31.48-1.43,6.99-4.83,13.05-8.71,18.94-4.56,6.93-9.64,13.51-13.74,20.75-2.16,3.82-1.37,5.35,3.15,5.46,4.2.1,8.35.43,11.97,2.78,7.9,5.12,13.09,17.5,7.84,28.05-2.39,4.82-6.6,8.34-11.77,10.4-1.1.44-2.2.89-3.3,1.33-5.54,2.24-8.39,6.41-8.58,12.32-.08,2.51-.38,4.96-.88,7.4-1.65,8.08-10.94,12.51-17.81,10.88-8.23-1.96-13.37-7-15.23-15.11-1.05-4.55-2.71-5.62-7.38-3.24-6.36,3.24-12.93,5.92-19.62,8.39-7.29,2.69-14.76,4.4-22.56,4.44-7.11.03-14.22.35-21.33-.48-11.22-1.3-21.69-4.92-31.81-9.75-2.67-1.28-5.31-2.65-8.21-3.36-3.73-.9-4.35-.54-5.07,3.19-.83,4.31-2.51,8.09-5.71,11.21-1.79,1.74-3.81,2.93-6.2,3.22-4.12.51-8.27.63-12.39-.19-4.42-.87-7.09-3.64-8.38-7.8-2.79-8.97-.63-17.32,3.37-25.41.47-.96,1.1-1.86,1.44-2.85.74-2.12.05-3.25-2.2-3.3-7.58-.16-12.89-4.2-17.2-9.91-3.13-4.15-3.65-8.86-2.66-13.87.97-4.89,2.92-9.23,6.44-12.84,2.65-2.73,5.67-4.61,9.58-4.87,2.01-.13,4.03-.36,5.99-.77,2.6-.54,3.46-2.23,2.62-4.71-1.24-3.66-3.52-6.7-5.81-9.73-7.05-9.31-12.94-19.26-17.03-30.25-.76-2.04-1.19-4.2-1.22-6.25-.09-5.67-1.2-11.32-.42-17.03.43-3.17.03-6.39.41-9.59.85-7.28,4.23-13.52,7.81-19.7,3.99-6.89,8.73-13.28,13.41-19.69,1.21-1.66,2.08-3.45,2.89-5.27,1.01-2.26.36-3.66-1.97-4.34-1.24-.36-2.57-.71-3.84-.65C8.41,72.81,1.08,62.37.2,53.85c-.32-3.05-.31-6.14.43-9.2,1.44-6.03,5.93-9.22,10.89-11.97,2.8-1.55,5.68-2.96,8.53-4.42,2.79-1.42,4.05-3.67,4.37-6.81.41-4.11.79-8.24,2.21-12.21C28.84,3.06,32.5.25,39.07.08c.71-.02,1.42,0,2.77,0Zm10.35,157.41c.31,14.06-.75,36.01.58,57.94.32,5.18,1.6,6.46,6.82,7.09,9.68,1.18,19.43.77,29.13,1.05,18.85.56,37.73.23,56.6.15,4.73-.02,9.45-.6,14.2-.75,4-.13,4.93-1.16,5.08-4.86.16-3.91.47-7.81.63-11.71.52-12.8.18-25.61.76-38.41.7-15.4.15-30.83.61-46.25.58-19.32.38-38.67-.48-57.99-.13-2.99-.68-3.78-3.66-4.25-2.69-.42-5.38-.85-8.13-.87-29.43-.18-58.86-.22-88.29,0-2.28.02-4.49.4-6.71.76-3.23.52-5.2,2.67-5.73,5.94-.28,1.75-.62,3.52-.67,5.29-.29,10.31-.64,20.63-.71,30.94-.12,16.02-.03,32.04-.03,55.94Zm129.51,50.44c-.2,8.02,1.44,16.91,5.78,25.2,2.3,4.38,5.38,8.06,9.63,10.69,7.3,4.52,16.61,1.76,20.08-6.04,1.89-4.25,2.14-8.68,1.29-13.25-.47-2.52-1.83-4.37-3.8-5.79-2.23-1.6-4.7-2.85-7.41-3.34-2.59-.46-5.13-.58-7.19,1.79-3.78,4.35-4.6,13.7-1.36,18.45,1.32,1.94,3.08,3.33,5.65,3.01,4.24-.53,8.22-5.44,7.82-9.68-.2-2.13-1.23-3.84-2.95-5.07-1.43-1.03-3.09-.66-3.96.83-.96,1.64.04,2.41,1.4,2.94,1.16.46,2.27.89,1.8,2.51-.48,1.66-1.14,3.17-3.1,3.48-1.49.24-2.51-.46-3.13-1.8-.75-1.63-1.21-3.32-1.2-5.15.04-5.47,3.19-7.84,8.36-6.08,2.25.77,4.52,1.78,5.06,4.5.85,4.33.35,8.49-1.79,12.4-2.3,4.2-6.33,5.66-10.83,4.13-4.94-1.67-8.06-5.33-10.52-9.59-4.47-7.72-5.73-16.3-5.83-25.03-.11-10.04,2.06-19.76,4.62-29.42,4.58-17.29,6.4-34.75,2.31-52.42-1.57-6.81-3.46-13.56-5.08-20.36-1.21-5.07-2.38-10.18-2.62-15.41-.49-10.95,2.75-21.04,7.28-30.84,1.94-4.21,5.13-6.66,9.45-7.92,5.07-1.47,9.47.81,11.34,5.8,1.3,3.45,1.12,6.99.96,10.54-.12,2.64-2.11,3.56-4.19,4.23-2.36.76-4.8,1.73-7.08-.19-.52-.44-1.07-1.09-1.19-1.72-.58-2.93-.63-5.91.1-8.82.41-1.63,1.79-2.09,3.37-1.93,2.09.21,3.07,1.82,3.7,3.44.59,1.54-.87,1.92-2.02,2.29-.97.31-1.8.83-1.61,2,.21,1.33,1.13,2.1,2.44,2.2,2.04.15,3.32-1.03,4.2-2.72,1.65-3.17.45-7.8-2.61-10.24-4.33-3.46-10.46-1.65-11.91,3.72-1.31,4.85-.76,9.65,1.52,14.17,1.22,2.42,3.26,3.62,6.02,3.69,7.44.18,13.29-5.21,13.51-12.52.03-1.07.03-2.14.04-3.2.06-8.02-3.2-12.51-10.81-15.03-1.65-.55-3.22-.6-4.89-.21-4.7,1.11-8.4,3.71-11.39,7.44-3.85,4.81-6.03,10.29-7.58,16.25-2.23,8.57-2.04,17.2-1.32,25.81.76,9.22,3.3,18.15,5.49,27.13,2,8.18,3.62,16.5,3.29,24.96-.4,10.22-2.53,20.2-5.01,30.11-2.36,9.45-4.24,18.98-4.14,30.06ZM44.37,76.09c.57-10.15-2.75-19.41-6.68-28.48-2.34-5.41-6.51-8.94-12.21-10.62-6.52-1.92-12.68.21-16.12,5.84-1.98,3.24-1.97,6.99-2.11,10.69-.22,6.05,3.01,9.81,8.08,12.22,6.54,3.12,11.66.59,12.92-6.52.85-4.8,1.28-9.72-2.09-13.98-2.09-2.64-4.73-3.1-7.47-1.16-2.38,1.69-4.1,3.99-5.29,6.6-1.48,3.24.9,7.31,4.42,7.8.97.14,1.93.04,2.53-.88.56-.86.13-1.58-.42-2.25-.38-.46-.82-.86-1.17-1.34-.99-1.37-1.14-2.89-.36-4.36.6-1.14,1.74-1.7,3-1.46,1.63.31,2.7,1.38,3.2,3,.4,1.26.49,2.55.49,3.87.02,7.03-2.03,8.5-8.71,6.2-3.64-1.25-5.32-3.54-5.58-7.39-.2-2.92.44-5.63,1.66-8.27,1.83-3.97,5.55-5.94,9.88-5.14,5.71,1.05,9.63,4.44,12.09,9.52,5.49,11.38,6.17,23.49,5.18,35.81-.49,6.06-2.37,11.84-3.78,17.72-1.99,8.31-3.34,16.69-3.95,25.26-.79,11.23-.59,22.25,2.62,33.13,2.14,7.27,4.46,14.49,5.27,22.1.77,7.21,1.51,14.4.31,21.62-.96,5.8-3.58,11-5.78,16.38-2.37,5.8-6.5,8.76-12.4,9.94-2.06.41-3.66.01-5.28-1.24-5.22-4.04-5.68-9.54-4.87-15.43.18-1.3.93-2.43,2.07-3.21,2.6-1.78,5.51-2.06,8.53-1.68,1.23.15,1.73,1.03,2.05,2.16.82,2.95.58,5.87-.03,8.81-.4,1.92-1.71,2.45-3.42,2.35-1.83-.11-2.72-1.24-2.93-2.99-.19-1.56.55-2.72,1.57-3.8.83-.89,1.68-1.94.47-3.06-1.18-1.09-2.44-.65-3.49.34-2.28,2.17-2.73,4.89-2.27,7.86.56,3.57,3.65,6.05,7.62,6.14,3.51.08,5.79-1.91,6.49-5.76.42-2.35.24-4.73.29-7.1.2-8.8-5.09-12.81-13.79-8.66-.11.05-.23.07-.33.13-3.44,2.2-6.91,4.43-6.9,9.17.01,4.14.01,8.31,1.5,12.27,1.95,5.22,6.88,8.19,12.39,7.46,2.23-.3,4.41-.83,6.57-1.54,3.43-1.13,5.87-3.23,7.85-6.28,5.69-8.76,7.93-18.48,8.27-28.7.41-12.21-1.72-24.09-5.2-35.75-1.63-5.47-2.66-11.07-3.21-16.74-.77-7.8-.35-15.62,0-23.44.06-1.41.29-2.83.54-4.23,1.23-7.02,3.08-13.89,4.83-20.79,1.84-7.26,3.45-14.55,3.16-22.12Zm.35,164.81c-.95,0-1.9-.05-2.85,0-6.43.37-11.73,3.04-15.37,8.33-4.58,6.66-4.93,13.93-1.91,21.34.8,1.96,2.01,3.72,3.99,4.85,4.74,2.72,10.12,2.24,14.5-1.61,1.83-1.61,3.81-3.13,4.22-5.92.75-5.11-2.48-11.15-7.26-13.08-2.7-1.09-7.18-.55-8.43,1.01-2.11,2.65-.37,9.69,2.75,11.06.79.35,1.64.55,2.3-.2.68-.78.24-1.6-.25-2.27-.56-.75-1.32-1.36-1.9-2.11-.84-1.09-1.32-2.37-.55-3.63.85-1.39,2.2-1.08,3.5-.69,3.69,1.1,5.11,3.96,5.83,7.39.45,2.12-.29,3.73-2.13,4.83-1.85,1.12-3.9,1.73-6,2.17-3.69.77-6.34-.49-7.66-4.02-1.8-4.79-1.37-9.49.79-14.16,1.66-3.59,4.31-6.04,7.99-7.06,3.41-.95,6.98-1.37,10.57-1.03,6.87.64,13.57,2.05,20.14,4.15,10.39,3.33,20.85,6.44,31.78,7.46,6.86.64,13.78.84,20.6-.07,10.59-1.42,20.93-4.01,31.09-7.35,4.5-1.48,9.07-2.82,13.8-3.4,5.05-.61,10.09-1.49,15.19-.14,5.15,1.36,8.7,4.43,9.91,9.61.7,2.98.5,6.16.04,9.22-.52,3.53-2.28,6.22-5.87,7.35-3.37,1.06-5.69-1.05-7.91-2.93-2.37-2.01-2.86-4.41-1.84-6.67,1.28-2.83,5.01-5.38,7.55-5.15,2.07.19,2.68,1.37,1.48,3.1-.94,1.36-2.09,2.58-3.04,3.93-.91,1.29-.38,1.95,1.1,2.06,2.37.17,3.72-1.39,4.89-3.05,3.03-4.3.59-10.04-4.49-10.3-3.56-.19-6.73.92-8.93,4.14-1.59,2.33-2.15,4.99-2.99,7.57-.78,2.41-.1,4.42,1.62,6.18,2.56,2.61,5.61,4.44,9.16,5.19,4.23.9,7.93-.09,10.89-3.55,2.42-2.82,2.8-6.2,3.2-9.62.69-5.96-.72-11.38-4.9-15.75-6.29-6.55-14.16-8.3-22.86-6.65-4.9.93-9.63,2.54-14.4,3.96-9.54,2.82-19,5.81-28.93,7.29-12.54,1.87-24.83,1.05-37.08-1.58-7.54-1.62-14.9-3.95-22.28-6.19-6.22-1.89-12.41-4.09-19.05-4.01ZM179.16,40.89c1.62,0,2.45.01,3.28,0,15.6-.29,25.1-14.77,19.19-29.26-1.74-4.26-5.41-6.61-10.04-6.5-2.56.06-4.85,1.07-7.18,1.94-2.51.93-4.07,2.78-4.94,5.27-1.01,2.9-1.01,5.86-.1,8.75,1.74,5.53,9.04,8.78,14.32,6.5,2.39-1.03,2.98-3.87,1.63-7.87-1.17-3.46-3.7-5.45-6.09-4.82-1.37.36-1.72,1.14-1.05,2.37.76,1.38,2.02,2.31,3.06,3.45.63.7,1.41,1.45.71,2.48-.59.87-1.55,1.13-2.53.88-.79-.2-1.57-.54-2.3-.94-2.72-1.47-5.16-3.43-5.13-6.71.03-3.04,2.56-4.64,5.01-5.98,5.35-2.9,11.01,0,11.68,6.08.29,2.7.36,5.44-.26,8.15-1.54,6.75-6.08,10.67-12.97,11.13-7.17.48-14.21-.13-21.08-2.37-12.07-3.94-24.14-7.82-36.95-8.64-9.25-.59-18.48-.74-27.67.67-8.59,1.32-16.87,3.88-25.11,6.53-7.96,2.55-16,4.37-24.45,3.81-7.06-.47-14.03-4.83-14.94-12.24-.38-3.13-.05-6.2.81-9.16,1.16-3.98,4.73-6.12,8.51-5.2,3.28.8,6.81,2.07,7.8,5.44,1.1,3.74-1.9,6.31-4.44,8.69-.17.16-.35.33-.55.46-1.22.74-2.58.94-3.65,0-1.26-1.1-1.02-2.57-.19-3.88.57-.89,1.46-1.61,1.9-2.55.62-1.31-.29-2.37-1.74-2.22-1.29.14-2.19.89-2.79,1.98-.98,1.79-1.62,3.69-1.54,5.78.12,3.25,1.54,4.7,4.78,5.03,4.63.47,7.62-2.01,10.02-5.52,1.8-2.63,3.05-5.59,1.94-8.72-1.81-5.1-5.53-8.31-11-8.82-5.07-.47-9.08,1.75-11.5,6.19-3.37,6.19-3.31,12.92-.03,18.81,4.52,8.13,12.27,11.49,21.52,11.23,6.73-.19,13.06-2.29,19.33-4.45,15.46-5.33,31.1-9.22,47.68-8.14,5.83.38,11.57,1.11,17.25,2.3,8.84,1.85,17.41,4.67,25.99,7.45,4.75,1.54,9.51,3.05,13.83,2.62Zm-74.21,234.17c2.93.17,5.98-.28,9.05-.63,8.72-.99,17.41-2.08,25.75-5.07,8.39-3.01,16.48-6.65,24.24-11.05,1.23-.7,2.34-1.61,3.44-2.51.81-.66,1.1-1.58.58-2.55-.58-1.09-1.59-.93-2.5-.59-2.01.76-3.84,1.87-5.63,3.04-6.01,3.93-12.6,6.53-19.4,8.7-9.43,3.02-19.09,4.75-28.93,5.48-6.64.49-13.26.29-19.81-1.17-7.78-1.72-15.19-4.55-22.64-7.28-5.59-2.05-10.7-5.11-16.05-7.66-1.06-.51-2.18-.91-3.3-1.28-.43-.14-.96-.07-1.3.35-.43.54-.36,1.16.04,1.63.61.71,1.28,1.39,2.02,1.97,2.15,1.7,4.51,3.06,6.97,4.26,9.83,4.81,20.03,8.62,30.54,11.61,5.48,1.56,10.97,3.11,16.93,2.74ZM116.99,7.34c-3.61-.15-7.77.36-11.84.92-16.32,2.26-31.24,8.44-45.27,16.92-.93.56-1.68,1.31-2.32,2.18-.35.48-.74,1.04-.36,1.61.37.57,1.05.46,1.63.31,2.43-.63,4.6-1.89,6.8-3.05,8.09-4.29,16.46-7.86,25.3-10.29,7.11-1.95,14.34-3.17,21.69-3.54,5.55-.28,11.12-.53,16.68.3,8.37,1.24,16.29,4.03,24.23,6.8,6.64,2.31,12.69,5.83,18.92,8.97,1.47.74,3.34,1.93,4.38.04,1-1.82-1.24-2.5-2.39-3.31-5.28-3.68-11.18-6.2-16.98-8.89-12.65-5.86-25.98-8.78-40.46-8.98Zm-3,237.89c7.45.13,18.46-1.3,29.3-4.12,8.03-2.09,16.08-4.1,24.09-6.22,1.41-.37,3.66-.79,3.25-2.6-.5-2.21-2.68-1.18-4.23-.93-7.5,1.22-14.71,3.66-22.1,5.35-6.49,1.48-12.97,2.79-19.66,2.78-10.91-.02-21.82.01-32.74-.12-5.94-.07-11.8-.97-17.57-2.37-5.99-1.46-11.99-2.89-17.99-4.31-2.22-.53-4.47-.57-6.71-.18-.59.1-1.16.42-1.22,1.1-.07.73.55.99,1.09,1.22.43.19.9.31,1.36.42,8.08,1.84,15.96,4.49,24.11,6.1,11.65,2.29,23.37,3.84,39.02,3.9Zm2.99-207.98c-8.78-.07-16.67.49-24.53,1.75-11.62,1.86-22.73,5.74-34.18,8.29-.83.19-1.54.6-2.2,1.12-.47.38-.9.82-.7,1.49.2.66.8.84,1.4.88,1.78.13,3.54.03,5.3-.34,6.96-1.46,13.77-3.52,20.65-5.26,10.42-2.64,21.09-2.82,31.75-2.89,6.4-.04,12.78.23,19.18.51,7.75.33,15.27,1.58,22.73,3.63,6.16,1.69,12.29,3.54,18.61,4.62,1.29.22,2.59.57,3.82-.11,1.02-.56,1.42-1.37.24-2.16-1.08-.73-2.31-1.17-3.57-1.55-8.85-2.69-17.84-4.73-26.93-6.45-10.72-2.03-21.45-3.85-31.59-3.52Zm101,111.02c-.11,9.96-2.96,19.57-8.38,28.5-3.81,6.28-8.17,12.22-11.45,18.81-.42.84-1.15,1.84-.27,2.59,1.06.9,1.92-.21,2.74-.81.28-.2.49-.51.7-.8,7.09-9.66,14.09-19.44,17.69-31.03,4.14-13.35,4.46-26.78-.54-40.09-3.24-8.62-8.05-16.35-13.32-23.82-1.7-2.41-3.18-5.03-5.52-6.94-.64-.52-1.26-1.25-2.16-.61-.76.54-.85,1.39-.62,2.25.36,1.4,1.1,2.62,1.97,3.76,3.16,4.13,6.14,8.39,9.04,12.72,7.1,10.63,9.89,22.41,10.13,35.47ZM28.05,83.73c-1.29.17-2,1.19-2.84,2.01-6.2,6.05-10.32,13.55-14.52,20.98-1.39,2.47-2.69,5-3.56,7.74-2.75,8.74-2.96,17.72-2.75,26.76.16,6.82,1.18,13.42,4.34,19.62,1.4,2.75,2.9,5.44,4.41,8.11,3.45,6.08,7.09,12.06,11.82,17.26.84.92,1.81,2.97,3.22,1.84,1.22-.97-.27-2.56-.88-3.79-3-6.07-7.16-11.43-10.62-17.21-3.11-5.19-6.21-10.5-7.29-16.47-2.41-13.23-2.79-26.38,3.36-38.96.89-1.83,2.05-3.46,3.05-5.19,3.56-6.15,6.93-12.42,11.55-17.89.76-.9,1.52-1.85,1.81-3.03.22-.9.03-1.67-1.12-1.79Zm166.42,16.59c-.99,1.29-.69,2.57-.32,3.79.79,2.61,1.58,5.22,2.53,7.77,3.45,9.27,5.78,18.8,6.41,28.68.9,14.15-.81,27.92-6.55,41.04-1.04,2.38-1.86,4.87-2.56,7.37-.29,1.05-.55,2.61.8,3.16,1.45.6,2.02-.85,2.6-1.83.54-.91.9-1.93,1.37-2.89,1.82-3.74,3.08-7.72,4.28-11.66,1.81-5.99,3.38-12.03,3.95-18.37.56-6.32.21-12.55-.24-18.8-.75-10.59-3.03-20.88-7.27-30.64-1.18-2.71-2.01-5.83-5-7.62ZM18.59,135.38c-.78,14.65,3.27,28.33,8.66,41.74.58,1.44,1.34,2.81,2.46,3.88,1.17,1.12,2.22.72,2.47-.88.32-1.98-.49-3.75-1.27-5.47-3.52-7.7-5.8-15.77-7.54-24.03-1.9-9.03-2.44-18.06-.58-27.16,1.87-9.18,4.1-18.27,7.89-26.89.63-1.43.96-2.93,1.16-4.46.08-.6-.12-1.21-.69-1.54-.69-.4-1.08.15-1.46.59-.86.99-1.62,2.03-2.14,3.25-5.66,13.06-9.62,26.49-8.96,40.96Z"/>
    </g>
  </g>
</svg>