<?xml version="1.0" encoding="UTF-8" standalone="no"?>
<!-- Created with Inkscape (http://www.inkscape.org/) -->

<svg
   width="91.092041mm"
   height="54.482635mm"
   viewBox="0 0 91.092041 54.482635"
   version="1.1"
   id="svg5"
   xml:space="preserve"
   xmlns="http://www.w3.org/2000/svg"
   xmlns:svg="http://www.w3.org/2000/svg"><defs
     id="defs2" /><g
     id="layer1"
     transform="translate(-68.949243,-47.689672)"><path
       style="fill:#000000;stroke-width:0.264583"
       d="m 99.393905,101.82102 c -0.0787,-0.20505 -0.009,-0.83013 0.15498,-1.38906 1.011885,-3.450164 1.090525,-3.910054 0.770765,-4.507534 -0.26746,-0.49976 -0.20272,-0.84696 0.41427,-2.2218 0.85368,-1.90226 1.01504,-3.09894 1.61996,-12.014 0.48784,-7.18948 0.64777,-19.508975 0.27393,-21.100516 -0.22981,-0.978366 -0.22197,-0.992188 0.56321,-0.992188 0.64754,0 0.86404,0.160614 1.1591,0.859896 0.47513,1.126043 0.47597,6.752377 0.002,16.418618 -0.19821,4.04615 -0.28552,7.43149 -0.19403,7.52299 0.31602,0.31601 0.78926,-0.46179 1.68635,-2.77165 4.88962,-12.589736 7.77195,-23.694995 6.94608,-26.762059 -0.3323,-1.234073 -0.20858,-1.617795 0.52162,-1.617795 0.76018,0 1.3223,1.02987 1.3223,2.422623 0,1.193121 -0.92277,6.263622 -1.74998,9.615919 -1.01969,4.132352 -4.02804,12.905432 -6.46225,18.845522 -0.43098,1.05171 -0.7836,2.03397 -0.7836,2.18282 0,0.43969 0.6645,0.3137 2.07075,-0.39262 0.72626,-0.36478 1.69066,-0.73727 2.14311,-0.82776 0.95979,-0.19196 1.62563,-0.98191 3.98412,-4.72671 4.2954,-6.82021 8.12366,-15.845203 9.65197,-22.754169 0.35917,-1.623641 2.67652,-9.263595 2.93834,-9.68723 0.0798,-0.129055 0.43565,-0.234645 0.79087,-0.234645 0.73211,0 0.80254,0.389787 0.39708,2.197941 -0.13681,0.610143 -0.44957,2.240445 -0.69502,3.622893 -0.24545,1.382447 -0.78185,3.88276 -1.192,5.55625 -0.92755,3.78453 -1.7183,7.503364 -2.3629,11.1125 -0.2729,1.52797 -0.74156,4.1384 -1.04146,5.80096 -0.64801,3.59232 -0.70003,5.04696 -0.1805,5.04696 0.41957,0 0.45287,-0.0775 2.38686,-5.55625 2.23036,-6.318315 2.01051,-5.94535 4.13516,-7.015303 2.27147,-1.143898 6.90063,-5.150081 9.65954,-8.359608 1.11696,-1.299399 1.57174,-1.560848 8.72137,-5.013883 5.71139,-2.758413 10.01197,-5.057395 11.41964,-6.104657 1.07074,-0.796598 1.79743,-0.850559 1.51419,-0.112437 -0.33953,0.884787 -4.80847,3.706168 -8.83279,5.57641 -0.94588,0.439587 -2.4937,1.233013 -3.43958,1.763171 -0.94589,0.530157 -3.08901,1.648467 -4.7625,2.485132 -2.49548,1.247622 -3.27624,1.787102 -4.34118,2.999628 -2.74605,3.126616 -7.41366,6.96614 -10.11649,8.321717 -0.68043,0.34127 -0.89237,0.6703 -1.16572,1.80974 -0.41597,1.73394 -3.56127,10.56312 -4.21693,11.83733 -0.64766,1.25868 -1.95508,2.46667 -2.54644,2.35279 -1.04933,-0.20209 -0.95135,-2.69018 0.44883,-11.39827 0.85163,-5.29655 0.67814,-5.453388 -1.434,-1.29636 -0.98756,1.94367 -2.19193,4.14633 -2.6764,4.89479 -0.48446,0.74847 -1.35875,2.19429 -1.94287,3.21293 -1.9909,3.47194 -3.73918,5.15938 -5.3454,5.15938 -1.72527,0 -3.27815,1.38603 -4.89113,4.36562 -0.55144,1.01865 -1.20464,2.09021 -1.45156,2.38125 -0.25187,0.29688 -0.64072,1.63252 -0.88583,3.04271 -0.60366,3.47303 -0.91824,4.465744 -1.64566,5.193174 -0.71473,0.71473 -1.133535,0.79435 -1.340555,0.25484 z m -30.35019,-5.618984 c -0.10631,-0.10631 -0.12587,-1.21266 -0.0435,-2.45856 0.0824,-1.24589 0.18115,-10.90137 0.21943,-21.45661 0.0383,-10.555237 0.15906,-19.336097 0.2684,-19.513018 0.27576,-0.446189 1.09405,-0.40248 1.49433,0.07982 0.25739,0.310136 0.28968,1.544944 0.14191,5.426644 -0.28538,7.496636 -0.22382,31.241284 0.0818,31.546894 0.32873,0.32873 0.81339,-0.62269 1.72165,-3.37979 0.81343,-2.4692 1.58765,-3.42824 2.97815,-3.6891 0.54932,-0.10305 1.20268,-0.33019 1.4519,-0.50476 0.72967,-0.51108 3.46192,-4.15328 4.19493,-5.59201 0.74681,-1.4658 1.53918,-1.75549 1.99014,-0.7276 0.14364,0.32742 0.39792,0.59531 0.56505,0.59531 0.16713,0 1.50811,-1.09415 2.97997,-2.43144 2.51271,-2.283 2.67609,-2.49402 2.67609,-3.45635 0,-0.99692 0.0235,-1.02264 0.8599,-0.94199 0.74449,0.0718 0.87055,0.19197 0.93928,0.8956 0.0696,0.71301 -0.18999,1.07268 -2.11667,2.93217 -4.66259,4.49998 -6.83067,6.24316 -7.76493,6.24316 -0.46859,0 -0.8959,0.34685 -1.55144,1.25931 -1.17356,1.63352 -2.43941,2.58039 -3.59453,2.68877 -1.04665,0.0982 -1.56295,0.88771 -2.13305,3.26181 -0.17473,0.72761 -0.701,2.15636 -1.16949,3.175 -0.46849,1.01865 -0.92498,2.14974 -1.01442,2.51355 -0.29593,1.20368 -1.87895,3.5682 -2.44309,3.64918 -0.2962,0.0425 -0.62553,-0.01 -0.73184,-0.11599 z m 15.72653,-33.787827 c -0.22556,-0.271779 -0.17424,-0.466945 0.21551,-0.819669 0.62213,-0.563019 1.07407,-0.339782 1.07407,0.530539 0,0.726719 -0.78108,0.90184 -1.28958,0.28913 z"
       id="path870" /></g></svg>
