<?xml version="1.0" encoding="UTF-8" standalone="no"?>
<!-- Created with Inkscape (http://www.inkscape.org/) -->

<svg
   width="105.83334mm"
   height="41.932907mm"
   viewBox="0 0 105.83334 41.932907"
   version="1.1"
   id="svg5"
   xml:space="preserve"
   xmlns="http://www.w3.org/2000/svg"
   xmlns:svg="http://www.w3.org/2000/svg"><defs
     id="defs2" /><g
     id="layer1"
     transform="translate(-16.435013,-54.30329)"><path
       style="fill:#000000;stroke-width:0.181784"
       d="m 59.912723,95.584656 c -0.744484,-1.781795 -0.784718,-3.49488 -0.176828,-7.528769 0.362737,-2.407087 0.348909,-2.726761 -0.117955,-2.726761 -0.209188,0 -0.596482,0.170019 -0.860656,0.37782 -0.393748,0.309719 -0.628257,0.356157 -1.301161,0.257653 -1.171703,-0.171524 -2.085919,-0.614594 -4.086201,-1.980334 -0.966739,-0.660064 -1.864612,-1.200112 -1.995275,-1.200112 -0.531155,0 -2.10837,0.841687 -3.737683,1.994632 -2.07421,1.467762 -2.387964,1.641045 -2.971326,1.641045 -0.876041,0 -1.703788,-1.502966 -2.031575,-3.688807 -0.144655,-0.964629 -0.740945,-2.066657 -1.359542,-2.512626 -0.249953,-0.180201 -0.774898,-0.351499 -1.166546,-0.380657 -0.782597,-0.05826 -0.756229,-0.08411 -2.650919,2.597065 -1.029173,1.456377 -5.430216,5.889371 -7.390767,7.444424 -3.512351,2.785891 -6.126787,3.80609 -7.686631,2.999463 -0.560072,-0.289622 -0.919601,-1.074622 -0.919601,-2.007853 0,-0.904416 1.138694,-2.969375 2.496381,-4.527052 2.172884,-2.492949 2.037163,-2.025701 1.09528,-3.770787 -2.545076,-4.71541 -3.265372,-8.299358 -3.201452,-15.929322 0.0329,-3.927436 0.0032,-4.449229 -0.269052,-4.721449 -0.286866,-0.286867 -0.345371,-0.284861 -0.933744,0.03202 -0.877529,0.472579 -2.361548,1.740091 -2.711597,2.315997 -0.386122,0.635247 -0.370062,1.024644 0.08465,2.052606 0.405329,0.916309 0.361849,1.436439 -0.105099,1.257254 -0.355425,-0.136387 -0.676137,-0.746296 -1.181936,-2.247737 -0.356867,-1.059347 -0.371442,-1.258422 -0.161435,-2.205044 l 0.230849,-1.040563 2.101346,-1.439771 c 2.989238,-2.04812 2.887111,-2.01376 6.373272,-2.144294 1.649691,-0.06177 3.326649,-0.111558 3.726574,-0.11063 1.404986,0.0034 3.652099,0.406168 5.280627,0.946827 5.005844,1.661904 7.641654,5.160025 7.856979,10.42741 0.100613,2.461248 -0.02251,3.189845 -1.07859,6.382755 l -0.721521,2.181409 0.405753,0.272673 c 0.223164,0.149971 0.78892,0.640791 1.257233,1.090704 0.703765,0.676113 0.922978,1.054552 1.263602,2.181409 0.226664,0.749862 0.455158,1.677205 0.50776,2.060769 0.05319,0.387871 0.219005,0.744729 0.373594,0.80405 0.316226,0.121348 1.338285,-0.425708 2.672035,-1.430194 1.287317,-0.969521 3.256276,-1.852019 4.177157,-1.872233 0.669574,-0.0147 1.017611,0.154733 2.720388,1.324325 2.919008,2.004993 3.713686,2.137808 5.965017,0.996976 1.019797,-0.51677 1.09336,-0.670246 1.58239,-3.301416 0.198854,-1.069908 0.447896,-2.354294 0.553429,-2.854204 0.866212,-4.103227 1.278528,-7.283577 1.39047,-10.725263 0.138234,-4.249941 0.190115,-4.5446 0.800192,-4.5446 0.364097,0 0.458983,0.1114 0.541909,0.636243 0.05529,0.349939 0.03491,0.825452 -0.0453,1.056702 -0.0802,0.231243 -0.183665,2.170464 -0.229915,4.309365 -0.07378,3.412074 -0.15264,4.228704 -0.643157,6.660017 -0.307488,1.524107 -0.600882,3.06151 -0.651985,3.416457 -0.0511,0.354941 -0.135481,0.768056 -0.187503,0.918027 -0.05202,0.149971 -0.591091,2.726761 -1.197926,5.726202 -0.943269,4.662347 -1.106287,5.756803 -1.123668,7.544042 -0.01118,1.149785 0.04199,2.438177 0.118158,2.863101 0.112354,0.626797 0.08709,0.772576 -0.133899,0.772576 -0.149812,0 -0.394886,-0.293181 -0.544607,-0.651516 z M 25.517654,91.441001 c 2.184854,-0.966251 5.635961,-3.652641 8.586004,-6.68348 3.46196,-3.556775 4.163813,-4.707927 2.955483,-4.847476 -2.033345,-0.234815 -9.234656,3.727654 -9.538864,5.24869 -0.09092,0.45462 -0.168867,0.513899 -0.549933,0.418261 -0.333816,-0.08379 -0.581656,0.01828 -0.99875,0.411149 -0.983027,0.92601 -2.511706,2.946043 -2.880452,3.806294 -0.363014,0.846875 -0.471867,1.903219 -0.222259,2.156867 0.222536,0.226139 1.570955,-0.03366 2.648771,-0.510305 z m 2.728635,-8.998274 c 3.088873,-2.222743 6.598424,-3.765793 9.006082,-3.959715 0.762455,-0.06142 1.537001,-0.18914 1.721215,-0.283844 0.426612,-0.219323 1.035006,-1.601188 1.622919,-3.686189 0.701952,-2.489438 0.859801,-3.424263 0.859801,-5.091979 0,-4.185344 -2.411439,-7.464624 -6.42045,-8.731064 -2.675302,-0.845129 -5.02408,-0.998859 -8.25131,-0.540069 -2.014049,0.286332 -2.878351,0.5746 -3.365853,1.122612 -0.486368,0.54674 -0.682818,2.569775 -0.68948,7.100194 -0.0098,6.678224 0.441784,9.132738 2.475958,13.457109 0.629228,1.337653 0.869213,1.681505 1.173575,1.681505 0.21043,0 1.050824,-0.480851 1.867543,-1.06856 z m 41.651998,10.156972 c -0.303918,-0.09437 -0.896989,-0.466384 -1.317936,-0.826698 -0.6745,-0.577342 -0.764879,-0.745142 -0.761362,-1.413525 0.01183,-2.24835 2.101784,-4.091616 5.722207,-5.046798 2.758748,-0.727849 7.921405,-0.669985 9.945251,0.111468 0.225561,0.08709 0.41218,-0.04651 0.681012,-0.487433 0.430551,-0.7062 0.474557,-1.558461 0.123189,-2.38563 -0.348551,-0.820533 -3.749653,-4.053182 -6.643586,-6.31453 -6.507679,-5.08517 -6.938524,-5.453605 -8.514721,-7.281296 -2.36786,-2.745662 -3.498753,-5.005561 -3.498753,-6.991646 0,-1.425556 0.852573,-2.987947 2.213708,-4.056748 1.602744,-1.258521 4.520549,-2.868601 5.993414,-3.307239 1.557445,-0.463827 2.369116,-0.400756 4.042587,0.314129 1.021092,0.436199 1.198167,0.579092 1.197514,0.966353 -0.0014,0.894715 -0.232246,1.007899 -1.205745,0.591442 -1.273703,-0.544874 -2.061998,-0.618659 -3.267252,-0.305815 -1.514327,0.393069 -2.685705,0.964514 -4.558651,2.223878 -2.363498,1.589213 -3.500868,3.024106 -3.50564,4.422688 -5.45e-4,0.163389 0.329267,0.956955 0.732946,1.763479 1.290798,2.578934 4.451987,5.785406 9.264164,9.396857 4.218723,3.16608 5.673376,4.353378 6.772641,5.527896 1.605771,1.715694 2.086863,2.561064 2.23276,3.923424 0.175055,1.634676 0.435986,1.657397 1.84677,0.160827 0.630067,-0.668384 1.145573,-1.299213 1.145573,-1.401853 0,-0.102639 -0.296163,-0.725127 -0.65814,-1.383308 -1.750829,-3.18349 -1.980637,-5.380599 -0.971287,-9.286083 0.945921,-3.660061 2.076035,-5.519048 3.916012,-6.441643 1.39501,-0.699493 2.659361,-0.809065 3.753082,-0.32526 0.678442,0.300107 0.904938,0.534339 1.302572,1.347067 1.029083,2.103373 0.813298,4.084834 -0.837681,7.692136 -0.503353,1.099794 -1.141217,2.613149 -1.41747,3.363004 -0.276259,0.749862 -0.606081,1.643429 -0.732939,1.985707 -0.260423,0.702627 -0.51596,1.05179 -1.491047,2.037306 -0.374927,0.37894 -0.681692,0.782105 -0.681692,0.895917 0,0.304689 0.905199,1.087125 2.054496,1.77588 1.163072,0.697006 5.06642,2.042657 7.261237,2.503268 1.68258,0.353106 7.26459,0.38456 9.77153,0.0551 0.74989,-0.09857 2.38598,-0.301337 3.63575,-0.4506 2.62752,-0.313821 6.84562,-1.031625 8.54385,-1.453932 0.40124,-0.09977 0.3865,-0.06939 -0.1259,0.25942 -1.63133,1.046863 -3.37015,1.660935 -5.69119,2.009864 -2.47301,0.371781 -6.25274,0.681651 -7.39076,0.605916 -0.86155,-0.0573 -1.23366,5.43e-4 -1.61641,0.251299 -0.72005,0.471795 -5.62698,0.562343 -7.861819,0.145079 -3.641015,-0.679817 -5.141303,-1.332109 -9.241996,-4.018217 -0.457333,-0.299571 -0.244599,-0.477595 -2.462312,2.060548 -1.862683,2.131817 -2.229778,2.378863 -3.087941,2.078124 -0.548877,-0.192349 -0.639404,-0.172122 -0.969006,0.216471 -1.19164,1.404917 -4.139091,3.027803 -7.188128,3.957832 -1.526341,0.465573 -2.295229,0.592452 -3.900697,0.643679 -1.099793,0.03511 -2.248285,-0.0134 -2.552204,-0.107772 z m 5.91521,-1.59801 c 2.606207,-0.902018 4.718717,-2.019723 5.862538,-3.101819 1.356713,-1.2835 0.809629,-1.572779 -2.953992,-1.561978 -4.551816,0.01305 -7.404629,0.843652 -8.897839,2.590559 -0.877092,1.026107 -1.048278,1.591281 -0.623994,2.060109 0.494494,0.54641 1.298556,0.700112 3.250281,0.621313 1.405022,-0.05675 2.168737,-0.194843 3.363006,-0.608184 z M 90.443625,79.098671 c 0.195364,-0.670486 0.434454,-1.055596 0.81259,-1.308845 0.294679,-0.197358 0.682716,-0.688171 0.862306,-1.090705 0.179583,-0.402526 0.595122,-1.180901 0.923412,-1.729702 0.328297,-0.548809 0.766331,-1.571343 0.973417,-2.2723 0.207086,-0.700964 0.654643,-1.842181 0.994565,-2.536048 0.821563,-1.677005 0.839083,-2.635499 0.06238,-3.412211 -0.524707,-0.524707 -0.615453,-0.550265 -1.627964,-0.458454 -1.143985,0.103732 -2.681443,0.841591 -3.380841,1.622543 -0.997622,1.113947 -1.683883,2.806954 -2.15335,5.312325 -0.277427,1.480541 -0.274432,1.590347 0.07137,2.616818 0.22903,0.679878 0.323116,1.304496 0.257447,1.709174 -0.111942,0.689792 0.356872,1.992234 0.919682,2.555044 0.481594,0.481594 0.9605,0.106062 1.285006,-1.007639 z m 21.287385,1.769181 c -0.39159,-0.345775 -0.84832,-0.628678 -1.01496,-0.628678 -0.16664,0 -0.36429,-0.06136 -0.43921,-0.13634 -0.0749,-0.07499 -0.35442,-0.141829 -0.6211,-0.148542 -1.09596,-0.02762 -1.43968,-0.242236 -2.01209,-1.256492 -0.30981,-0.548952 -0.56069,-1.224296 -0.55751,-1.500754 0.007,-0.577507 0.37215,-1.13895 0.74139,-1.138812 0.55343,1.78e-4 2.18667,0.756217 3.81177,1.764426 1.18687,0.736334 1.93583,1.08022 2.43974,1.120207 0.39993,0.03174 0.75643,0.08618 0.79222,0.120991 0.0358,0.03483 -0.23085,0.550457 -0.59255,1.145882 -0.93307,1.535994 -1.41307,1.659987 -2.5477,0.658112 z"
       id="path1582" /></g></svg>
